<?xml version="1.0" encoding="utf-8"?>
<!-- Generator: Adobe Illustrator 25.0.0, SVG Export Plug-In . SVG Version: 6.00 Build 0)  -->
<svg version="1.1" id="Layer_1" xmlns="http://www.w3.org/2000/svg" xmlns:xlink="http://www.w3.org/1999/xlink" x="0px" y="0px"
	 viewBox="0 0 532 343" style="enable-background:new 0 0 532 343;" xml:space="preserve">
<style type="text/css">
	.st0{fill:none;}
	.st1{fill-rule:evenodd;clip-rule:evenodd;fill:#D3F9D8;}
	.st2{fill:#FF5B62;}
	.st3{fill:#ED4C54;}
	.st4{fill:#666666;}
	.st5{fill:#21D0C3;}
	.st6{fill:#FFFFFF;}
	.st7{fill:#ECF0F1;fill-opacity:0;}
	.st8{fill:#828282;}
	.st9{fill:#FAD24D;}
	.st10{fill:#ECF0F1;}
	.st11{fill:#DCE3DB;}
	.st12{fill:#B6B6B8;}
	.st13{fill:#C2C2C4;}
	.st14{fill:#B0B0B0;}
	.st15{fill:#C9CACC;}
	.st16{fill:#FFBA1B;}
	.st17{fill:#D3F9D8;}
	.st18{fill:#CDF1FF;}
	.st19{fill:#FFE152;}
	.st20{fill:#2BA1CF;}
	.st21{fill:#66BAED;}
	.st22{fill:#F2F0EC;}
	.st23{fill:#D8D5D0;}
	.st24{fill:#CC7A3B;}
	.st25{fill:#A35418;}
	.st26{fill:#EAB599;}
	.st27{fill:#F6CAAE;}
	.st28{fill:#3D4159;}
	.st29{fill:#BFD5DE;}
	.st30{fill:#DDE8ED;}
	.st31{fill:#D3A489;}
	.st32{fill:#F74F4F;}
	.st33{fill:#BF8E75;}
	.st34{fill:#2A2F4F;}
</style>
<desc>Created with Sketch.</desc>
<g>
	<rect id="canvas_background" x="-1" y="-1" class="st0" width="582" height="402"/>
</g>
<g>
	<g id="Page-1">
		<g id="Artboard-Copy-2">
			<rect id="Rectangle" class="st1" width="532" height="343"/>
			<g id="startup">
				<circle id="Oval" class="st2" cx="266" cy="172" r="125"/>
				<ellipse id="Oval_1_" class="st3" cx="266" cy="252.9" rx="89" ry="7"/>
				<path id="Shape" class="st4" d="M173.2,79.8h185.6c6.1,0,11.1,5,11.1,11.1v114.3H162.1V90.9C162.1,84.8,167.1,79.8,173.2,79.8
					L173.2,79.8z"/>
				<path id="Shape_1_" class="st5" d="M169.7,197.7h192.7V90.9c0-1.9-1.6-3.6-3.6-3.6H173.2c-1.9,0-3.6,1.6-3.6,3.6L169.7,197.7
					L169.7,197.7L169.7,197.7L169.7,197.7z"/>
				<path id="Shape_2_" class="st6" d="M369.9,205.2v12.1c0,6.1-5.5,11.1-12.2,11.1H174.4c-6.7,0-12.2-5-12.2-11.1v-12.1H369.9z"/>
				<path id="Shape_3_" class="st7" d="M183,133.1c17.6,0,32.5,11.7,37.3,27.8c7.9,3.5,13.6,10.9,14.9,19.8c1.4-0.3,2.8-0.5,4.3-0.5
					c4.3,0,8.2,1.5,11.3,3.9c1-6.2,6.4-10.9,12.8-10.9c0.8,0,1.6,0.1,2.4,0.2c0.8-0.1,1.6-0.2,2.4-0.2c6.5,0,11.8,4.7,12.8,10.9
					c3.1-2.4,7.1-3.9,11.3-3.9c1.5,0,2.9,0.2,4.3,0.5c1.3-8.8,7-16.2,14.9-19.8c4.8-16.1,19.7-27.8,37.3-27.8
					c4.7,0,9.1,0.8,13.3,2.3v62.3h-88.2l0,0l-0.1,0h-16.2l-0.1,0l0,0h-88.2v-62.3C173.8,133.9,178.3,133.1,183,133.1L183,133.1
					L183,133.1z"/>
				<g id="Group-3">
					<g id="Group">
						<path id="Shape_4_" class="st6" d="M210,98.9H314h15.5c1.9,0,3.4,1.5,3.4,3.4v20.3v74.1H191.1l0,0v-74.1v-20.3
							c0-1.9,1.5-3.4,3.4-3.4C194.6,98.9,210,98.9,210,98.9L210,98.9z"/>
					</g>
					<g id="Group-2">
						<path id="Shape_5_" class="st8" d="M195.6,99.6h134.9c1.9,0,3.4,1.5,3.4,3.4v6.8H192.1V103C192.1,101.1,193.7,99.6,195.6,99.6
							z"/>
						<path id="Shape_6_" class="st6" d="M255.2,103.1h68.5c0.5,0,0.9,0.4,0.9,0.9v1.7c0,0.5-0.4,0.9-0.9,0.9h-68.5
							c-0.5,0-0.9-0.4-0.9-0.9V104C254.3,103.5,254.7,103.1,255.2,103.1z"/>
						<path id="Shape_7_" class="st5" d="M198.9,102.5c1.1,0,2,0.9,2,2c0,1.1-0.9,2-2,2c-1.1,0-2-0.9-2-2
							C197,103.4,197.9,102.5,198.9,102.5z"/>
						<path id="Shape_8_" class="st9" d="M206.7,102.5c1.1,0,2,0.9,2,2c0,1.1-0.9,2-2,2c-1.1,0-2-0.9-2-2
							C204.7,103.4,205.6,102.5,206.7,102.5z"/>
						<path id="Shape_9_" class="st2" d="M214.4,102.5c1.1,0,2,0.9,2,2c0,1.1-0.9,2-2,2c-1.1,0-2-0.9-2-2
							C212.5,103.4,213.4,102.5,214.4,102.5z"/>
						<polygon id="Shape_10_" class="st10" points="200,114.7 326.4,114.7 326.4,156.4 200,156.4 						"/>
						<path id="Shape_11_" class="st2" d="M218.6,161.3c4.6,0,8.4,3.8,8.4,8.4c0,4.6-3.8,8.4-8.4,8.4c-4.6,0-8.4-3.8-8.4-8.4
							C210.2,165.1,213.9,161.3,218.6,161.3z"/>
						<path id="Shape_12_" class="st5" d="M263,161.3c4.6,0,8.4,3.8,8.4,8.4c0,4.6-3.8,8.4-8.4,8.4s-8.4-3.8-8.4-8.4
							C254.6,165.1,258.4,161.3,263,161.3z"/>
						<path id="Shape_13_" class="st9" d="M307.4,161.3c4.6,0,8.4,3.8,8.4,8.4c0,4.6-3.8,8.4-8.4,8.4c-4.6,0-8.4-3.8-8.4-8.4
							C299,165.1,302.8,161.3,307.4,161.3z"/>
						<g id="Group_1_">
							<path id="Shape_14_" class="st11" d="M192.2,99.2h24.1v1.3h-24.1V99.2z M192.2,107.4h16.2v1.3h-16.2V107.4L192.2,107.4z
								 M192.2,103.3h24.1v1.3h-24.1V103.3z"/>
							<path id="Shape_15_" class="st11" d="M236.6,99.2h24.1v1.3h-24.1V99.2L236.6,99.2z M236.6,107.4h16.2v1.3h-16.2V107.4
								L236.6,107.4z M236.6,103.3h24.1v1.3h-24.1V103.3L236.6,103.3z"/>
							<path id="Shape_16_" class="st11" d="M281,99.2h24.1v1.3H281V99.2z M281,107.4h16.2v1.3H281V107.4z M281,103.3h24.1v1.3H281
								V103.3z"/>
						</g>
					</g>
				</g>
				<circle id="Oval_2_" class="st12" cx="266" cy="216.3" r="3.8"/>
				<polygon id="Shape_17_" class="st13" points="290,245.9 307.6,251.5 224.4,251.5 238.6,245.9 238.6,228.4 290,228.4 290,245.9 
									"/>
				<polygon id="Shape_18_" class="st14" points="290,245.9 238.6,228.4 290,228.4 				"/>
				<polygon id="Shape_19_" class="st10" points="238.6,245.9 290,245.9 307.6,251.5 307.6,253.9 266,253.9 224.4,253.9 
					224.4,251.5 				"/>
			</g>
			<g id="Group-5">
				<g id="Group_2_">
					<path id="Shape_20_" class="st15" d="M228.6,115v0.6h-1.2V115H228.6z M227.2,116.1h0.6v1.2h-0.6V116.1z M227.2,119h0.6v1.2
						h-0.6V119z M227.2,121.9h0.6v1.2h-0.6V121.9z M227.2,124.9h0.6v1.2h-0.6V124.9z M227.2,127.8h0.6v1.2h-0.6
						C227.2,129,227.2,127.8,227.2,127.8z M227.2,130.7h0.6v1.2h-0.6V130.7z M228.1,133.3v-0.6h1.2v0.6H228.1z M231,133.3v-0.6h1.2
						v0.6H231z M233.9,133.3v-0.6h1.2v0.6H233.9z M236.9,133.3v-0.6h1.2v0.6H236.9z M239.8,133.3v-0.6h1.2v0.6H239.8z M242.7,133.3
						v-0.6h1.2v0.6H242.7z M245.6,133.3v-0.6h1.2v0.6H245.6z M248.6,133.3v-0.6h1.2v0.6H248.6z M251.5,133.3v-0.6h1.2v0.6H251.5z
						 M254.4,133.3v-0.6h1.2v0.6H254.4z M257.3,133.3v-0.6h1.2v0.6H257.3z M260.3,133.3v-0.6h1.2v0.6H260.3z M263.2,133.3v-0.6h1.2
						v0.6H263.2z M266.1,133.3v-0.6h1.2v0.6H266.1z M269.1,133.3v-0.6h1.2v0.6H269.1z M272,133.3v-0.6h1.2v0.6H272z M274.9,133.3
						v-0.6h1.2v0.6H274.9z M277.8,133.3v-0.6h1.2v0.6H277.8z M280.8,133.3v-0.6h1.2v0.6H280.8z M283.7,133.3v-0.6h1.2v0.6H283.7z
						 M286.6,133.3v-0.6h1.2v0.6H286.6z M289.5,133.3v-0.6h1.2v0.6H289.5z M292.5,133.3v-0.6h1.2v0.6H292.5z M295.4,133.3v-0.6h1.2
						v0.6H295.4z M297.4,131.8h-0.6v-1.2h0.6V131.8z M297.4,128.8h-0.6v-1.2h0.6V128.8z M297.4,125.9h-0.6v-1.2h0.6V125.9z
						 M297.4,123h-0.6v-1.2h0.6V123z M297.4,120h-0.6v-1.2h0.6V120z M297.4,117.1h-0.6V116h0.6V117.1z M295.9,115v0.6h-1.2V115
						H295.9z M293,115v0.6h-1.2V115H293z M290.1,115v0.6h-1.2V115H290.1z M287.2,115v0.6H286V115H287.2z M284.2,115v0.6h-1.2V115
						H284.2z M281.3,115v0.6h-1.2V115H281.3z M278.4,115v0.6h-1.2V115H278.4z M275.5,115v0.6h-1.2V115H275.5z M272.5,115v0.6h-1.2
						V115H272.5z M269.6,115v0.6h-1.2V115H269.6z M266.7,115v0.6h-1.2V115H266.7z M263.8,115v0.6h-1.2V115H263.8z M260.8,115v0.6
						h-1.2V115H260.8z M257.9,115v0.6h-1.2V115H257.9z M255,115v0.6h-1.2V115H255z M252,115v0.6h-1.2V115H252z M249.1,115v0.6h-1.2
						V115H249.1z M246.2,115v0.6H245V115H246.2z M243.3,115v0.6h-1.2V115H243.3z M240.3,115v0.6h-1.2V115H240.3z M237.4,115v0.6
						h-1.2V115H237.4z M234.5,115v0.6h-1.2V115H234.5z M231.6,115v0.6h-1.2V115H231.6z"/>
					<path id="Shape_21_" class="st15" d="M230.2,139.7v0.6H229v-0.6H230.2z M279.8,140.9h0.6v1.2h-0.6V140.9z M279.8,143.9h0.6v1.2
						h-0.6V143.9z M279.8,146.8h0.6v1.2h-0.6V146.8z M279.8,149.7h0.6v1.2h-0.6V149.7z M280.8,152.3v-0.6h1.2v0.6H280.8z
						 M283.7,152.3v-0.6h1.2v0.6H283.7z M286.6,152.3v-0.6h1.2v0.6H286.6z M289.5,152.3v-0.6h1.2v0.6H289.5z M292.5,152.3v-0.6h1.2
						v0.6H292.5z M295.4,152.3v-0.1l-0.2-0.2v-1.1h0.6v1.1v0.3h-0.3L295.4,152.3L295.4,152.3L295.4,152.3z M295.8,149.2h-0.6V148
						h0.6V149.2z M295.8,146.3h-0.6v-1.2h0.6V146.3z M295.8,143.3h-0.6v-1.2h0.6V143.3z M295.8,140.4h-0.6v-0.1h-0.5v-0.6h0.8h0.3
						v0.3L295.8,140.4L295.8,140.4L295.8,140.4z M293,139.7v0.6h-1.2v-0.6H293z M290.1,139.7v0.6h-1.2v-0.6H290.1z M287.1,139.7v0.6
						H286v-0.6H287.1z M284.2,139.7v0.6H283v-0.6H284.2z M281.3,139.7v0.6h-1.2v-0.6H281.3z M228.7,140.9h0.6v1.2h-0.6V140.9z
						 M228.7,143.9h0.6v1.2h-0.6V143.9z M228.7,146.8h0.6v1.2h-0.6V146.8z M228.7,149.7h0.6v1.2h-0.6V149.7z M229.6,152.3v-0.6h1.2
						v0.6H229.6z M232.6,152.3v-0.6h1.2v0.6H232.6z M235.5,152.3v-0.6h1.2v0.6H235.5z M238.4,152.3v-0.6h1.2v0.6H238.4z
						 M241.4,152.3v-0.6h1.2v0.6H241.4z M244.3,152.3v-0.1l-0.2-0.2v-1.1h0.6v1.1v0.3h-0.3L244.3,152.3L244.3,152.3L244.3,152.3
						L244.3,152.3z M244.7,149.2h-0.6V148h0.6V149.2z M244.7,146.3h-0.6v-1.2h0.6V146.3z M244.7,143.3h-0.6v-1.2h0.6V143.3z
						 M244.7,140.4h-0.6v-0.1h-0.5v-0.6h0.8h0.3v0.3L244.7,140.4L244.7,140.4L244.7,140.4z M241.9,139.7v0.6h-1.2v-0.6H241.9z
						 M239,139.7v0.6h-1.2v-0.6H239z M236,139.7v0.6h-1.2v-0.6H236z M233.1,139.7v0.6h-1.2v-0.6H233.1z"/>
				</g>
				<circle id="Oval_3_" class="st10" cx="262.6" cy="134.4" r="12.4"/>
				<path id="Shape_22_" class="st8" d="M275.3,134.4c0,3.5-1.4,6.7-3.7,9s-5.5,3.7-9,3.7c-3.5,0-6.7-1.4-9-3.7s-3.7-5.5-3.7-9h0.6
					c0,3.3,1.4,6.4,3.5,8.6c2.2,2.2,5.2,3.5,8.6,3.5c3.3,0,6.4-1.4,8.6-3.5c2.2-2.2,3.5-5.2,3.5-8.6H275.3z"/>
				<path id="Shape_23_" class="st16" d="M260.1,129.5l-2.9,7l5.3,10.1v-10.1c-0.4-0.1-0.8-0.5-0.8-1c0-0.5,0.4-1,1-1
					c0.5,0,1,0.4,1,1c0,0.5-0.4,0.9-0.9,1v10.1l5.3-10.1l-2.9-7h-2.5L260.1,129.5L260.1,129.5L260.1,129.5L260.1,129.5z"/>
				<g id="Group_3_">
					<polygon id="Shape_24_" class="st8" points="228,115.8 255.8,115.8 255.8,116.4 228,116.4 					"/>
					<path id="Shape_25_" class="st8" d="M228,115.1c0.5,0,1,0.4,1,1c0,0.5-0.4,1-1,1c-0.5,0-1-0.4-1-1
						C227.1,115.6,227.5,115.1,228,115.1z"/>
					<path id="Shape_26_" class="st8" d="M255.8,115.1c0.5,0,1,0.4,1,1c0,0.5-0.4,1-1,1c-0.5,0-1-0.4-1-1
						C254.8,115.6,255.2,115.1,255.8,115.1L255.8,115.1z"/>
				</g>
				<path id="Shape_27_" class="st2" d="M259.1,115.2h6.9v13.4c0,0.5-0.4,0.8-0.8,0.8H260c-0.5,0-0.8-0.4-0.8-0.8L259.1,115.2
					L259.1,115.2z"/>
				<rect id="Rectangle-path" x="259.1" y="125.3" class="st6" width="6.9" height="1.3"/>
				<g id="Group_4_">
					<circle id="Oval_4_" class="st8" cx="262.6" cy="146.9" r="1"/>
					<path id="Shape_28_" class="st8" d="M250.2,133.5c0.5,0,1,0.4,1,1s-0.4,1-1,1c-0.5,0-1-0.4-1-1
						C249.2,133.9,249.7,133.5,250.2,133.5z"/>
					<path id="Shape_29_" class="st8" d="M275,133.5c0.5,0,1,0.4,1,1s-0.4,1-1,1c-0.5,0-1-0.4-1-1C274,133.9,274.5,133.5,275,133.5z
						"/>
				</g>
			</g>
		</g>
	</g>
	<rect id="svg_1" x="636.5" y="167.9" class="st17" width="605" height="387"/>
	<rect id="svg_24" x="-36.5" y="-19.5" class="st18" width="618" height="413"/>
	<g>
		<path class="st19" d="M392.5,174.3c0,18.6-4,36.3-11.3,52.3c-12.4,27.2-34.2,49.2-61.3,61.9c-4.9,2.3-10,4.3-15.2,5.9
			c-5.9,1.9-11.9,3.3-18.2,4.3c0,0-0.1,0-0.1,0c-3.1,0.5-6.1,0.9-9.3,1.1c-0.7,0.1-1.3,0.1-2,0.2c-0.9,0.1-1.9,0.1-2.8,0.2
			c-1.9,0.1-3.9,0.1-5.9,0.1c-2,0-4,0-6-0.1c-0.9,0-1.8-0.1-2.7-0.2c-0.7,0-1.3-0.1-2-0.1c-3.2-0.3-6.4-0.7-9.5-1.2
			c-1.5-0.2-3-0.5-4.5-0.8c-6.4-1.3-12.6-3-18.6-5.2c-3.5-1.3-6.9-2.7-10.2-4.2c-1.1-0.5-2.3-1.1-3.4-1.7c-2.9-1.5-5.7-3-8.4-4.7
			c-13.7-8.3-25.7-19.1-35.3-31.9c-5.8-7.6-10.7-16-14.7-24.8c-7-15.6-10.8-32.9-10.8-51.1c0-69.6,56.4-126,126-126
			S392.5,104.7,392.5,174.3z"/>
		<g>
			<path class="st20" d="M241.8,211.6v86.1c-6.4-1.3-12.6-3-18.6-5.2c-3.5-1.3-6.9-2.7-10.2-4.2c-1.1-0.5-2.3-1.1-3.4-1.7
				c-2.9-1.5-5.7-3-8.4-4.7c-13.7-8.3-25.7-19.1-35.3-31.9c-5.8-7.6-10.7-16-14.7-24.8v-13.6c0-15.8,10.7-29.1,25.3-33
				c0.5-0.1,1.1-0.3,1.6-0.4c1.4-0.3,2.9-0.5,4.4-0.7c0.9-0.1,1.9-0.1,2.8-0.1h22.2c2.5,0,4.9,0.3,7.2,0.8c0.1,0,0.3,0.1,0.4,0.1
				c0.4,0.1,0.8,0.2,1.2,0.3c0,0,0,0,0,0c3.8,1,7.4,2.7,10.6,4.9C236,189.7,241.8,200,241.8,211.6z"/>
			<path class="st21" d="M241.8,211.6v86.1c-6.4-1.3-12.6-3-18.6-5.2c-3.5-1.3-6.9-2.7-10.2-4.2c-1.1-0.5-2.3-1.1-3.4-1.7
				c-2.9-1.5-5.7-3-8.4-4.7c-13.7-8.3-25.7-19.1-35.3-31.9v-38.5c0-15.8,10.7-29.1,25.3-33c0.5-0.1,1.1-0.3,1.6-0.4
				c1.4-0.3,2.9-0.5,4.4-0.7c0.9-0.1,1.9-0.1,2.8-0.1h7.6c2.5,0,4.9,0.3,7.2,0.8c0.1,0,0.3,0.1,0.4,0.1c0.4,0.1,0.8,0.2,1.2,0.3
				c0,0,0,0,0,0c3.8,1,7.4,2.7,10.6,4.9C236,189.7,241.8,200,241.8,211.6z"/>
			<path class="st22" d="M216.6,178.2l-0.1,0.4l-10.2,47.5c-1,4.6-5,7.9-9.7,7.9c0,0-0.1,0-0.1,0c0,0-0.1,0-0.1,0
				c-4.7,0-8.7-3.3-9.7-7.9l-10.2-47.5l-0.1-0.4H216.6z"/>
			<path class="st23" d="M196.5,191.4l-15.4,8.5l-4.7-21.8l9.6-5.6"/>
			<path class="st23" d="M196.5,191.4l15.4,8.5l4.7-21.8l-9.6-5.6"/>
			<path class="st24" d="M150.6,169.2v-51.5c0-5.2,0.9-10.4,2.6-15.2c6.4-18.3,23.9-30.7,43.3-30.7c2.4,0,4.8,0.2,7.2,0.6
				c10.7,1.7,20.5,7.1,27.6,15.4c7.2,8.3,11.1,19,11.1,30v51.5"/>
			<path class="st25" d="M169.5,119.7c0,18.2,10.7,39.3,16.5,49.5h-35.4v-51.5c0-5.2,0.9-10.4,2.6-15.2c6.4-18.2,23.7-30.5,43-30.7
				C182.1,72.1,169.5,94.8,169.5,119.7z"/>
			<path class="st26" d="M208.7,164.3v15c0,5.5-3.6,10.1-8.6,11.6c-1.1,0.4-2.4,0.5-3.6,0.5c-6.7,0-12.2-5.5-12.2-12.2v-15H208.7z"
				/>
			<path class="st27" d="M208.7,178.3v0.9c0,5.5-3.6,10.1-8.6,11.6c-4.5-1.4-7.9-5.3-8.5-10.1c0.8,0.1,1.6,0.1,2.5,0.1
				c2.3,0,4.6-0.2,6.8-0.5C203.6,179.9,206.2,179.2,208.7,178.3z"/>
			<path class="st27" d="M163.1,139.8c0,5.6-4.1,10.3-9.5,11.2c-0.6,0.1-1.2,0.1-1.8,0.1c-6.3,0-11.3-5.1-11.3-11.3
				c0-6.3,5.1-11.3,11.3-11.3c0.6,0,1.2,0.1,1.8,0.1C159,129.4,163.1,134.1,163.1,139.8z"/>
			<path class="st26" d="M163.1,139.8c0,5.6-4.1,10.3-9.5,11.2c-1-3.6-1.5-7.3-1.5-11.2c0-3.9,0.5-7.6,1.5-11.2
				C159,129.4,163.1,134.1,163.1,139.8z"/>
			<path class="st26" d="M155.8,139.8c0,2.2-1.8,4.1-4.1,4.1c-2.2,0-4.1-1.8-4.1-4.1c0-2.2,1.8-4.1,4.1-4.1
				C154,135.7,155.8,137.5,155.8,139.8z"/>
			<path class="st26" d="M225.6,125.3v39c-6,5.7-13.7,9.7-22.3,11.1c-0.1,0-0.1,0-0.2,0c-2.1,0.3-4.3,0.5-6.6,0.5
				c-23.3,0-42.2-18.9-42.2-42.2v-16.1c0-2.1,0.1-4.1,0.4-6.1c10,7.2,24.4,6.5,33.6-2.2c3-2.9,5.1-6.3,6.3-9.9
				c0.7,6.3,3.6,12.5,8.7,17.4C209.6,122.7,217.6,125.5,225.6,125.3z"/>
			<path class="st27" d="M225.6,125.3v39c-6,5.7-13.7,9.7-22.3,11.1c-0.1,0-0.1,0-0.2,0c-20.2-3.2-35.6-20.6-35.6-41.7v-16.1
				c0-0.4,0-0.9,0-1.3c7.4,0.8,15.2-1.6,20.9-6.9c3-2.9,5.1-6.3,6.3-9.9c0.7,6.3,3.6,12.5,8.7,17.4
				C209.6,122.7,217.6,125.5,225.6,125.3z"/>
			<path class="st26" d="M219.2,130.2c0-3.9-3.1-7-7-7c-3.9,0-7,3.1-7,7"/>
			<path class="st26" d="M187.9,130.2c0-3.9-3.1-7-7-7c-3.9,0-7,3.1-7,7"/>
			<path class="st28" d="M185.7,133.2c0,2.6-2.1,4.8-4.8,4.8c-2.6,0-4.8-2.1-4.8-4.8s2.1-4.8,4.8-4.8
				C183.5,128.4,185.7,130.5,185.7,133.2z"/>
			<path class="st28" d="M217,133.2c0,2.6-2.1,4.8-4.8,4.8s-4.8-2.1-4.8-4.8s2.1-4.8,4.8-4.8S217,130.5,217,133.2z"/>
			<path class="st26" d="M201.3,145.2h-9.6c-1.1,0-2.1-0.9-2.1-2.1s0.9-2.1,2.1-2.1h9.6c1.1,0,2.1,0.9,2.1,2.1
				S202.5,145.2,201.3,145.2z"/>
			<path class="st26" d="M196.5,158.3c-3.5,0-7.1-0.9-10.3-2.7c-0.9-0.5-1.2-1.6-0.7-2.5c0.5-0.9,1.6-1.2,2.5-0.7
				c5.3,2.9,11.6,2.9,16.9,0c0.9-0.5,2-0.2,2.5,0.7c0.5,0.9,0.2,2-0.7,2.5C203.6,157.4,200.1,158.3,196.5,158.3z"/>
			<path class="st6" d="M184.7,132.3c0,1.1-0.9,2.1-2.1,2.1c-1.1,0-2.1-0.9-2.1-2.1s0.9-2.1,2.1-2.1
				C183.8,130.3,184.7,131.2,184.7,132.3z"/>
			<path class="st6" d="M216.2,132.3c0,1.1-0.9,2.1-2,2.1c-1.1,0-2.1-0.9-2.1-2.1s0.9-2.1,2.1-2.1
				C215.3,130.3,216.2,131.2,216.2,132.3z"/>
			<path class="st26" d="M225.3,144.8c0,2.9-2.4,5.3-5.3,5.3c-2.9,0-5.3-2.4-5.3-5.3c0-2.9,2.4-5.3,5.3-5.3
				C222.9,139.6,225.3,141.9,225.3,144.8z"/>
			<path class="st26" d="M178.3,144.8c0,2.9-2.4,5.3-5.3,5.3c-2.9,0-5.3-2.4-5.3-5.3c0-2.9,2.4-5.3,5.3-5.3
				C176,139.6,178.3,141.9,178.3,144.8z"/>
			<path class="st29" d="M381.2,210.6v15.8c-12.4,27.2-34.2,49.2-61.3,61.9c-4.9,2.3-10,4.3-15.2,5.9c-5.9,1.9-11.9,3.3-18.2,4.3
				c0,0-0.1,0-0.1,0v-88c0-18.8,14.4-34.1,32.8-35.6c1-0.1,1.9-0.1,2.9-0.1h23.3c2.8,0,5.4,0.3,8,0.9
				C369.4,179.4,381.2,193.6,381.2,210.6z"/>
			<path class="st30" d="M381.2,210.6v15.8c-12.4,27.2-34.2,49.2-61.3,61.9c-4.9,2.3-10,4.3-15.2,5.9v-83.6
				c0-19.7,16-35.7,35.7-35.7h5C365.2,174.8,381.2,190.8,381.2,210.6z"/>
			<path class="st31" d="M298.8,135.4c0,5.9-4.3,10.8-10,11.7c-0.6,0.1-1.3,0.2-1.9,0.2c-6.6,0-11.9-5.3-11.9-11.9
				s5.3-11.9,11.9-11.9c0.6,0,1.3,0.1,1.9,0.2C294.5,124.6,298.8,129.5,298.8,135.4z"/>
			<path class="st32" d="M343.4,187.7l-9.6,15.4l-9.6-15.4"/>
			<path class="st32" d="M346.7,246.6l-12.9,16.3l-12.9-16.3l12.9-47.5L346.7,246.6z"/>
			<path class="st33" d="M298.8,135.4c0,5.9-4.3,10.8-10,11.7c-1-3.7-1.6-7.7-1.6-11.7c0-4.1,0.5-8,1.6-11.7
				C294.5,124.6,298.8,129.5,298.8,135.4z"/>
			<path class="st33" d="M291.2,135.4c0,2.3-1.9,4.2-4.2,4.2s-4.2-1.9-4.2-4.2s1.9-4.2,4.2-4.2S291.2,133.1,291.2,135.4z"/>
			<path class="st29" d="M333.8,189.5l-16.1,8.9l-4.9-22.8l10-5.9"/>
			<path class="st29" d="M333.8,189.5l16.1,8.9l4.9-22.8l-10-5.9"/>
			<path class="st31" d="M368.8,135.4c0,5.9,4.3,10.8,10,11.7c0.6,0.1,1.3,0.2,1.9,0.2c6.6,0,11.9-5.3,11.9-11.9
				s-5.3-11.9-11.9-11.9c-0.6,0-1.3,0.1-1.9,0.2C373.1,124.6,368.8,129.5,368.8,135.4z"/>
			<g>
				<path class="st33" d="M368.8,135.4c0,5.9,4.3,10.8,10,11.7c1-3.7,1.6-7.7,1.6-11.7c0-4.1-0.5-8-1.6-11.7
					C373.1,124.6,368.8,129.5,368.8,135.4z"/>
				<path class="st33" d="M384.9,135.4c0,2.3-1.9,4.2-4.2,4.2s-4.2-1.9-4.2-4.2s1.9-4.2,4.2-4.2S384.9,133.1,384.9,135.4z"/>
				<path class="st33" d="M378,129.1c0,22-16,40.2-37,43.6c-2.3,0.4-4.7,0.6-7.1,0.6c-24.4,0-44.1-19.8-44.1-44.1
					c0-11.5,4-28.8,11.2-36.7c8.1-8.8,20-7.4,32.9-7.4c2.4,0,4.8,0.2,7.1,0.6C361.9,88.9,378,107.2,378,129.1z"/>
				<path class="st33" d="M346.6,161.1v15.6c0,5.7-3.8,10.6-9,12.2c-1.2,0.4-2.5,0.6-3.8,0.6c-7,0-12.7-5.7-12.7-12.7v-15.6H346.6z"
					/>
			</g>
			<path class="st31" d="M346.6,175.7v1c0,5.7-3.8,10.6-9,12.2c-4.7-1.4-8.2-5.5-8.9-10.5c0.9,0.1,1.7,0.1,2.6,0.1
				c2.4,0,4.8-0.2,7.1-0.6C341.2,177.4,344,176.7,346.6,175.7z"/>
			<path class="st31" d="M378,129.1c0,22-16,40.2-37,43.6c-21-3.4-37-21.6-37-43.6c0-13.5,6.1-25.6,15.7-33.7
				c6-5.1,13.3-8.5,21.4-9.8c19.6,3.2,34.9,19.2,36.8,39.2C377.9,126.2,378,127.6,378,129.1z"/>
			<path class="st33" d="M333.8,150.8c-3.7,0-7.4-0.9-10.8-2.8c-1-0.5-1.3-1.7-0.8-2.7c0.5-1,1.7-1.3,2.7-0.8
				c5.6,3.1,12.2,3.1,17.7,0c0.9-0.5,2.1-0.2,2.7,0.8c0.5,1,0.2,2.1-0.8,2.7C341.2,149.9,337.5,150.8,333.8,150.8z"/>
			<path class="st28" d="M324.4,126.5c0,2.8-2.2,5-5,5c-2.8,0-5-2.2-5-5c0-2.8,2.2-5,5-5C322.2,121.5,324.4,123.8,324.4,126.5z"/>
			<path class="st28" d="M353.2,126.5c0,2.8-2.2,5-5,5c-2.8,0-5-2.2-5-5c0-2.8,2.2-5,5-5C351,121.5,353.2,123.8,353.2,126.5z"/>
			<path class="st6" d="M323.4,125.7c0,1.2-1,2.1-2.1,2.1c-1.2,0-2.1-1-2.1-2.1c0-1.2,1-2.1,2.1-2.1
				C322.5,123.5,323.4,124.5,323.4,125.7z"/>
			<path class="st6" d="M352.5,125.7c0,1.2-1,2.1-2.1,2.1c-1.2,0-2.1-1-2.1-2.1c0-1.2,1-2.1,2.1-2.1
				C351.5,123.5,352.5,124.5,352.5,125.7z"/>
			<path class="st33" d="M338.8,139.1h-10c-1.2,0-2.2-1-2.2-2.2c0-1.2,1-2.2,2.2-2.2h10c1.2,0,2.2,1,2.2,2.2
				C341,138.2,340,139.1,338.8,139.1z"/>
			<path class="st29" d="M348.4,209.4h19.2v5.9h-19.2V209.4z"/>
			<path class="st34" d="M331.2,72.4c13.4,1,24.1,11.8,24.8,25.3l0.1,2.6h7.7l4.1,27.5l10-3.1l-1.3-27
				c-0.7-14.3-12.5-25.5-26.8-25.4L331.2,72.4z"/>
			<path class="st28" d="M375.8,61.7c10.6,10.6,10.6,27.9,0,38.5c-10.6,10.6-27.9,10.6-38.5,0L375.8,61.7z"/>
			<path class="st28" d="M337.3,100.3h-33.4l-4.1,27.5l-10-3.1l1.3-27c0.7-14.3,12.5-25.5,26.8-25.4l48.3,0.2l6.4,11.5"/>
			<path class="st34" d="M336.4,72.4c-13.4,1-24.1,11.8-24.8,25.3l-0.1,2.6h-7.7l-4.1,27.5l-10-3.1l1.3-27
				c0.7-14.3,12.5-25.5,26.8-25.4L336.4,72.4z"/>
			<path class="st28" d="M319.9,278.8v9.5c-16.2,7.6-34.3,11.8-53.4,11.8c-19.1,0-37.2-4.2-53.4-11.9v-9.4
				c0-18.6,12.7-34.3,29.9-38.9c0.6-0.2,1.3-0.3,1.9-0.5c1.7-0.4,3.5-0.6,5.2-0.8c1.1-0.1,2.2-0.1,3.3-0.1h26.2
				c2.9,0,5.8,0.3,8.6,0.9c0.2,0,0.3,0.1,0.5,0.1c0.5,0.1,0.9,0.2,1.4,0.3c0,0,0,0,0,0c4.5,1.2,8.8,3.2,12.5,5.8
				C313,253,319.9,265.1,319.9,278.8z"/>
			<path class="st21" d="M290.1,239.4l-0.1,0.5l-12.9,59.8c-0.7,0.1-1.3,0.1-2,0.2c-0.9,0.1-1.9,0.1-2.8,0.2
				c-1.9,0.1-3.9,0.1-5.9,0.1c-2,0-4,0-6-0.1c-0.9,0-1.8-0.1-2.7-0.2c-0.7,0-1.3-0.1-2-0.1l-12.9-59.8l-0.1-0.5H290.1z"/>
			<path class="st28" d="M277.3,253.1l-10.8,17.4l-10.8-17.4"/>
			<path class="st28" d="M275.2,299.8c-0.9,0.1-1.9,0.1-2.8,0.2c-1.9,0.1-3.9,0.1-5.9,0.1c-2,0-4,0-6-0.1c-0.9,0-1.8-0.1-2.7-0.2
				l8.7-33.9L275.2,299.8z"/>
			<path class="st20" d="M266.5,255l-18.1,10.1l-5.5-25.7l11.3-6.6"/>
			<path class="st20" d="M266.5,255l18.1,10.1l5.5-25.7l-11.3-6.6"/>
			<path class="st34" d="M290.8,274.1h5.8l-10.1,24.5c-4.7,0.7-9.4,1.2-14.2,1.5l17.7-60.1l0.1-0.4l12.4,4.1L290.8,274.1z"/>
			<path class="st34" d="M260.5,300c-4.8-0.2-9.5-0.7-14.2-1.5l-10-24.4h5.8l-11.7-30.6l12.4-4.1l0.1,0.4L260.5,300z"/>
			<path class="st26" d="M280.9,223v17.6c0,6.5-4.3,11.9-10.1,13.7c-1.3,0.4-2.8,0.6-4.3,0.6c-7.9,0-14.4-6.4-14.4-14.4V223H280.9z"
				/>
			<path class="st27" d="M280.9,239.5v1.1c0,6.5-4.3,11.9-10.1,13.7c-5.3-1.6-9.3-6.2-10-11.9c1,0.1,1.9,0.1,2.9,0.1
				c2.7,0,5.4-0.2,8-0.6C274.8,241.4,277.9,240.6,280.9,239.5z"/>
			<path class="st27" d="M227,194.1c0,6.7-4.9,12.2-11.2,13.2c-0.7,0.1-1.4,0.2-2.1,0.2c-7.4,0-13.4-6-13.4-13.4s6-13.4,13.4-13.4
				c0.7,0,1.4,0.1,2.1,0.2C222.2,181.9,227,187.4,227,194.1z"/>
			<path class="st26" d="M227,194.1c0,6.7-4.9,12.2-11.2,13.2c-1.2-4.2-1.8-8.6-1.8-13.2c0-4.6,0.6-9,1.8-13.2
				C222.2,181.9,227,187.4,227,194.1z"/>
			<path class="st26" d="M218.4,194.1c0,2.6-2.1,4.8-4.8,4.8c-2.6,0-4.8-2.1-4.8-4.8c0-2.6,2.1-4.8,4.8-4.8
				C216.3,189.3,218.4,191.4,218.4,194.1z"/>
			<path class="st27" d="M305.9,194.1c0,6.7,4.9,12.2,11.2,13.2c0.7,0.1,1.4,0.2,2.1,0.2c7.4,0,13.4-6,13.4-13.4s-6-13.4-13.4-13.4
				c-0.7,0-1.4,0.1-2.1,0.2C310.8,181.9,305.9,187.4,305.9,194.1z"/>
			<path class="st26" d="M305.9,194.1c0,6.7,4.9,12.2,11.2,13.2c1.2-4.2,1.8-8.6,1.8-13.2c0-4.6-0.6-9-1.8-13.2
				C310.8,181.9,305.9,187.4,305.9,194.1z"/>
			<path class="st26" d="M316.2,168V187c0,24.8-18.1,45.3-41.8,49.1c-0.1,0-0.2,0-0.2,0c-2.5,0.4-5.1,0.6-7.7,0.6
				c-27.5,0-49.8-22.3-49.8-49.8V168c0-5.8,1-11.3,2.8-16.5c6.8-19.4,25.3-33.2,46.9-33.2h0c2.6,0,5.2,0.2,7.7,0.6
				C298,122.6,316.2,143.2,316.2,168z"/>
			<path class="st26" d="M324.1,194.1c0,2.6-2.1,4.8-4.8,4.8c-2.6,0-4.8-2.1-4.8-4.8c0-2.6,2.1-4.8,4.8-4.8
				C321.9,189.3,324.1,191.4,324.1,194.1z"/>
			<path class="st27" d="M316.2,168V187c0,24.8-18.1,45.3-41.8,49.1c-0.1,0-0.2,0-0.2,0c-23.8-3.7-42-24.3-42-49.2V168
				c0-24.8,18.2-45.4,42-49.2C298,122.6,316.2,143.2,316.2,168z"/>
			<path class="st28" d="M255.9,184.1c0,3.1-2.5,5.6-5.6,5.6c-3.1,0-5.6-2.5-5.6-5.6c0-3.1,2.5-5.6,5.6-5.6
				C253.4,178.4,255.9,181,255.9,184.1z"/>
			<path class="st28" d="M288.4,184.1c0,3.1-2.5,5.6-5.6,5.6c-3.1,0-5.6-2.5-5.6-5.6c0-3.1,2.5-5.6,5.6-5.6
				C285.8,178.4,288.4,181,288.4,184.1z"/>
			<path class="st6" d="M254.7,183.1c0,1.3-1.1,2.4-2.4,2.4c-1.3,0-2.4-1.1-2.4-2.4c0-1.3,1.1-2.4,2.4-2.4
				C253.7,180.7,254.7,181.7,254.7,183.1z"/>
			<path class="st6" d="M287.5,183.1c0,1.3-1.1,2.4-2.4,2.4c-1.3,0-2.4-1.1-2.4-2.4c0-1.3,1.1-2.4,2.4-2.4
				C286.4,180.7,287.5,181.7,287.5,183.1z"/>
			<path class="st26" d="M272.1,196.1h-11.3c-1.3,0-2.4-1.1-2.4-2.4c0-1.3,1.1-2.4,2.4-2.4h11.3c1.3,0,2.4,1.1,2.4,2.4
				C274.6,195,273.5,196.1,272.1,196.1z"/>
			<path class="st26" d="M266.5,211.5c-4.2,0-8.3-1-12.1-3.1c-1.1-0.6-1.5-1.9-0.9-3c0.6-1.1,1.9-1.5,3-0.9c6.3,3.4,13.7,3.4,20,0
				c1.1-0.6,2.4-0.2,3,0.9c0.6,1.1,0.2,2.4-0.9,3C274.8,210.4,270.6,211.5,266.5,211.5z"/>
			<path class="st34" d="M316.2,150.8v19.4H307V155l-66.8-12.4L226,140v30.2h-9.3v-19.4c0-22.1,17.9-40.1,40.1-40.1h19.4
				c0.5,0,1.1,0,1.6,0C299.1,111.6,316.2,129.2,316.2,150.8z"/>
			<path class="st28" d="M316.2,150.8v19.4H307V155l-66.8-12.4c3.7-17.7,19-31.1,37.6-31.8C299.1,111.6,316.2,129.2,316.2,150.8z"/>
		</g>
	</g>
</g>
</svg>
