<svg width="532" height="343" xmlns="http://www.w3.org/2000/svg">
 <!-- Generator: Sketch 45.1 (43504) - http://www.bohemiancoding.com/sketch -->
 <title>Artboard Copy 2</title>
 <desc>Created with Sketch.</desc>

 <g>
  <title>background</title>
  <rect fill="none" id="canvas_background" height="402" width="582" y="-1" x="-1"/>
 </g>
 <g>
  <title>Layer 1</title>
  <g fill-rule="evenodd" fill="none" id="Page-1">
   <g id="Artboard-Copy-2">
    <rect height="343" width="532" y="0" x="0" fill="#D3F9D8" id="Rectangle"/>
    <g fill-rule="nonzero" id="startup">
     <circle r="124.999512" cy="171.999512" cx="265.999512" fill="#FF5B62" id="Oval"/>
     <ellipse ry="7.016113" rx="89.005371" cy="252.880859" cx="265.999512" fill="#ED4C54" id="Oval"/>
     <path fill="#666666" id="Shape" d="m173.21729,79.82324l185.56445,0c6.09668,0 11.08496,4.98877 11.08496,11.08496l0,114.30909l-207.73438,0l0,-114.30958c0,-6.09667 4.9878,-11.08447 11.08497,-11.08447z"/>
     <path fill="#21D0C3" id="Shape" d="m169.65967,197.69141l192.6792,0l0,-106.78272c0,-1.94189 -1.61621,-3.5581 -3.55713,-3.5581l-185.56348,0c-1.94189,0 -3.55713,1.61621 -3.55713,3.5581l0,106.7832l-0.00146,0l0,-0.00048z"/>
     <path fill="#FFFFFF" id="Shape" d="m369.86572,205.21826l0,12.12207c0,6.09815 -5.49804,11.08496 -12.21924,11.08496l-183.29492,0c-6.72119,0 -12.21924,-4.98681 -12.21924,-11.08496l0,-12.12207l207.7334,0z"/>
     <path opacity="0" fill="#ECF0F1" id="Shape" d="m182.95996,133.05908c17.62158,0 32.50635,11.70996 37.30225,27.77149c7.85547,3.54541 13.60888,10.92529 14.87597,19.75195c1.38428,-0.33301 2.83057,-0.51025 4.31739,-0.51025c4.27636,0 8.21191,1.45752 11.33642,3.90332c0.98194,-6.2002 6.35205,-10.94141 12.82861,-10.94141c0.81299,0 1.6084,0.07568 2.37891,0.21826c0.771,-0.14306 1.56641,-0.21826 2.37891,-0.21826c6.47656,0 11.84668,4.74121 12.82861,10.94141c3.12402,-2.4458 7.06055,-3.90332 11.33594,-3.90332c1.48682,0 2.93164,0.17773 4.31738,0.51025c1.26709,-8.82715 7.02051,-16.20703 14.87598,-19.75195c4.79736,-16.06153 19.68115,-27.77149 37.30224,-27.77149c4.67139,0 9.14991,0.82373 13.3003,2.33203l0,62.29981l-88.18457,0l0.00097,-0.03028l-0.06054,0.03028l-16.18848,0l-0.06055,-0.03028l0.00098,0.03028l-88.18555,0l0,-62.29981c4.14991,-1.5083 8.62842,-2.33203 13.3003,-2.33203l-0.00147,0l0,0z"/>
     <g id="Group-3">
      <g fill="#FFFFFF" id="Group">
       <path id="Shape" d="m210.03174,98.858888l103.94385,0l15.47265,0c1.875,0 3.40869,1.53516 3.40869,3.40869l0,20.28662l0,74.09375l-141.70703,0l-0.00049,-0.00098l0,-74.09179l0,-20.28711c0,-1.875 1.53418,-3.40869 3.4087,-3.40869c0.00048,-0.00049 15.47363,-0.00049 15.47363,-0.00049z"/>
      </g>
      <g id="Group-2">
       <path fill="#828282" id="Shape" d="m195.55469,99.593258l134.89013,0c1.875,0 3.4087,1.53418 3.4087,3.4087l0,6.81738l-141.70801,0l0,-6.81738c0,-1.875 1.53369,-3.4087 3.40918,-3.4087z"/>
       <path fill="#FFFFFF" id="Shape" d="m255.2334,103.124028l68.45215,0c0.50439,0 0.91552,0.41113 0.91552,0.91552l0,1.69873c0,0.5044 -0.41113,0.91553 -0.91552,0.91553l-68.45215,0c-0.5044,0 -0.91553,-0.41113 -0.91553,-0.91553l0,-1.69873c0,-0.50342 0.41162,-0.91552 0.91553,-0.91552z"/>
       <path fill="#21D0C3" id="Shape" d="m198.9458,102.516598c1.0835,0 1.9624,0.87745 1.9624,1.96241c0,1.08447 -0.87939,1.9624 -1.9624,1.9624c-1.08496,0 -1.96435,-0.87793 -1.96435,-1.9624c0,-1.08496 0.87939,-1.96241 1.96435,-1.96241z"/>
       <path fill="#FAD24D" id="Shape" d="m206.69336,102.516598c1.08496,0 1.9624,0.87745 1.9624,1.96241c0,1.08447 -0.87744,1.9624 -1.9624,1.9624c-1.08398,0 -1.9624,-0.87793 -1.9624,-1.9624c-0.00049,-1.08496 0.8789,-1.96241 1.9624,-1.96241z"/>
       <path fill="#FF5B62" id="Shape" d="m214.44287,102.516598c1.0835,0 1.96192,0.87745 1.96192,1.96241c0,1.08447 -0.87842,1.9624 -1.96192,1.9624c-1.08545,0 -1.96435,-0.87793 -1.96435,-1.9624c0,-1.08496 0.8789,-1.96241 1.96435,-1.96241z"/>
       <polygon points="200,114.69091796875 326.36962890625,114.69091796875 326.36962890625,156.3779296875 200,156.3779296875 " fill="#ECF0F1" id="Shape"/>
       <path fill="#FF5B62" id="Shape" d="m218.56396,161.342778c4.63965,0 8.4004,3.76074 8.4004,8.40039c0,4.63867 -3.76075,8.40039 -8.4004,8.40039c-4.63867,0 -8.39941,-3.76123 -8.39941,-8.40039c-0.00049,-4.63965 3.76025,-8.40039 8.39941,-8.40039z"/>
       <path fill="#21D0C3" id="Shape" d="m263,161.342778c4.63867,0 8.39941,3.76074 8.39941,8.40039c0,4.63867 -3.76074,8.40039 -8.39941,8.40039c-4.63867,0 -8.39941,-3.76123 -8.39941,-8.40039c-0.00049,-4.63965 3.76025,-8.40039 8.39941,-8.40039z"/>
       <path fill="#FAD24D" id="Shape" d="m307.43555,161.342778c4.63867,0 8.39941,3.76074 8.39941,8.40039c0,4.63867 -3.76074,8.40039 -8.39941,8.40039c-4.63965,0 -8.40039,-3.76123 -8.40039,-8.40039c0,-4.63965 3.76074,-8.40039 8.40039,-8.40039z"/>
       <g fill="#DCE3DB" id="Group">
        <path id="Shape" d="m192.15186,99.155278l24.10644,0l0,1.30712l-24.10644,0l0,-1.30712zm0,8.21777l16.1914,0l0,1.30713l-16.1914,0l0,-1.30713l0,0zm0,-4.10889l24.10644,0l0,1.30664l-24.10644,0l0,-1.30664z"/>
        <path id="Shape" d="m236.5874,99.155278l24.10596,0l0,1.30712l-24.10596,0l0,-1.30712l0,0zm0,8.21777l16.19239,0l0,1.30713l-16.19239,0l0,-1.30713l0,0zm0,-4.10889l24.10596,0l0,1.30664l-24.10596,0l0,-1.30664l0,0z"/>
        <path id="Shape" d="m281.02441,99.155278l24.10499,0l0,1.30712l-24.10499,0l0,-1.30712zm0,8.21777l16.19092,0l0,1.30713l-16.19092,0l0,-1.30713zm0,-4.10889l24.10499,0l0,1.30664l-24.10499,0l0,-1.30664z"/>
       </g>
      </g>
     </g>
     <circle r="3.816406" cy="216.336426" cx="265.999512" fill="#B6B6B8" id="Oval"/>
     <polygon points="289.95703125,245.86328125 307.58154296875,251.5107421875 224.416015625,251.5107421875 238.63671875,245.86328125 238.63671875,228.42578125 289.95751953125,228.42578125 289.95751953125,245.86328125 " fill="#C2C2C4" id="Shape"/>
     <polygon points="289.95703125,245.86328125 238.63623046875,228.42578125 289.95703125,228.42578125 " fill="#B0B0B0" id="Shape"/>
     <polygon points="238.63623046875,245.86328125 289.95703125,245.86328125 307.58154296875,251.5107421875 307.58154296875,253.9423828125 266,253.9423828125 224.416015625,253.9423828125 224.416015625,251.5107421875 " fill="#ECF0F1" id="Shape"/>
    </g>
    <g fill-rule="nonzero" id="Group-5">
     <g fill="#C9CACC" id="Group">
      <path id="Shape" d="m228.62966,115.01142l0,0.58527l-1.17053,0l0,-0.58527l1.17053,0zm-1.46329,1.0655l0.58527,0l0,1.17054l-0.58527,0l0,-1.17054zm0,2.92685l0.58527,0l0,1.17053l-0.58527,0l0,-1.17053zm0,2.92709l0.58527,0l0,1.17053l-0.58527,0l0,-1.17053zm0,2.92684l0.58527,0l0,1.17053l-0.58527,0l0,-1.17053zm0,2.92684l0.58527,0l0,1.17054l-0.58527,0l0,-1.17054zm0,2.92684l0.58527,0l0,1.17054l-0.58527,0l0,-1.17054zm0.9118,2.60056l0,-0.58527l1.17053,0l0,0.58527l-1.17053,0zm2.92709,0l0,-0.58527l1.17053,0l0,0.58527l-1.17053,0zm2.92684,0l0,-0.58527l1.17054,0l0,0.58527l-1.17054,0zm2.92684,0l0,-0.58527l1.17054,0l0,0.58527l-1.17054,0zm2.92684,0l0,-0.58527l1.17054,0l0,0.58527l-1.17054,0zm2.92684,0l0,-0.58527l1.17054,0l0,0.58527l-1.17054,0zm2.92684,0l0,-0.58527l1.17054,0l0,0.58527l-1.17054,0zm2.92709,0l0,-0.58527l1.17054,0l0,0.58527l-1.17054,0zm2.92684,0l0,-0.58527l1.17054,0l0,0.58527l-1.17054,0zm2.92684,0l0,-0.58527l1.17054,0l0,0.58527l-1.17054,0zm2.92685,0l0,-0.58527l1.17053,0l0,0.58527l-1.17053,0zm2.92684,0l0,-0.58527l1.17054,0l0,0.58527l-1.17054,0zm2.92684,0l0,-0.58527l1.17054,0l0,0.58527l-1.17054,0zm2.92709,0l0,-0.58527l1.17054,0l0,0.58527l-1.17054,0zm2.92659,0l0,-0.58527l1.17054,0l0,0.58527l-1.17054,0zm2.92684,0l0,-0.58527l1.17054,0l0,0.58527l-1.17054,0zm2.92684,0l0,-0.58527l1.17054,0l0,0.58527l-1.17054,0zm2.92685,0l0,-0.58527l1.17053,0l0,0.58527l-1.17053,0zm2.92684,0l0,-0.58527l1.17053,0l0,0.58527l-1.17053,0zm2.92709,0l0,-0.58527l1.17053,0l0,0.58527l-1.17053,0zm2.92684,0l0,-0.58527l1.17054,0l0,0.58527l-1.17054,0zm2.92684,0l0,-0.58527l1.17054,0l0,0.58527l-1.17054,0zm2.92684,0l0,-0.58527l1.17054,0l0,0.58527l-1.17054,0zm2.92684,0l0,-0.58527l1.17054,0l0,0.58527l-1.17054,0zm1.95495,-1.55716l-0.58527,0l0,-1.17054l0.58527,0l0,1.17054zm0,-2.92684l-0.58527,0l0,-1.17054l0.58527,0l0,1.17054zm0,-2.92709l-0.58527,0l0,-1.17054l0.58527,0l0,1.17054zm0,-2.92659l-0.58527,0l0,-1.17054l0.58527,0l0,1.17054zm0,-2.92684l-0.58527,0l0,-1.17054l0.58527,0l0,1.17054zm0,-2.92684l-0.58527,0l0,-1.17054l0.58527,0l0,1.17054zm-1.40419,-2.10866l0,0.58527l-1.17054,0l0,-0.58527l1.17054,0zm-2.9266,0l0,0.58527l-1.17054,0l0,-0.58527l1.17054,0zm-2.92709,0l0,0.58527l-1.17054,0l0,-0.58527l1.17054,0zm-2.92684,0l0,0.58527l-1.17054,0l0,-0.58527l1.17054,0zm-2.92684,0l0,0.58527l-1.17054,0l0,-0.58527l1.17054,0zm-2.92684,0l0,0.58527l-1.17054,0l0,-0.58527l1.17054,0zm-2.92684,0l0,0.58527l-1.17054,0l0,-0.58527l1.17054,0zm-2.92684,0l0,0.58527l-1.17054,0l0,-0.58527l1.17054,0zm-2.92709,0l0,0.58527l-1.17054,0l0,-0.58527l1.17054,0zm-2.92684,0l0,0.58527l-1.17054,0l0,-0.58527l1.17054,0zm-2.92685,0l0,0.58527l-1.17053,0l0,-0.58527l1.17053,0zm-2.92684,0l0,0.58527l-1.17054,0l0,-0.58527l1.17054,0zm-2.92684,0l0,0.58527l-1.17054,0l0,-0.58527l1.17054,0zm-2.92684,0l0,0.58527l-1.17054,0l0,-0.58527l1.17054,0zm-2.92709,0l0,0.58527l-1.17054,0l0,-0.58527l1.17054,0zm-2.92659,0l0,0.58527l-1.17054,0l0,-0.58527l1.17054,0zm-2.92684,0l0,0.58527l-1.17054,0l0,-0.58527l1.17054,0zm-2.92685,0l0,0.58527l-1.17053,0l0,-0.58527l1.17053,0zm-2.92684,0l0,0.58527l-1.17053,0l0,-0.58527l1.17053,0zm-2.92684,0l0,0.58527l-1.17054,0l0,-0.58527l1.17054,0zm-2.92709,0l0,0.58527l-1.17054,0l0,-0.58527l1.17054,0zm-2.92684,0l0,0.58527l-1.17054,0l0,-0.58527l1.17054,0zm-2.92684,0l0,0.58527l-1.17054,0l0,-0.58527l1.17054,0z"/>
      <path id="Shape" d="m230.17863,139.69626l0,0.58527l-1.17054,0l0,-0.58527l1.17054,0zm49.64878,1.2279l0.58527,0l0,1.17054l-0.58527,0l0,-1.17054zm0,2.92684l0.58527,0l0,1.17054l-0.58527,0l0,-1.17054zm0,2.92684l0.58527,0l0,1.17054l-0.58527,0l0,-1.17054zm0,2.92685l0.58527,0l0,1.17053l-0.58527,0l0,-1.17053zm0.93167,2.58044l0,-0.58527l1.17053,0l0,0.58527l-1.17053,0zm2.92708,0l0,-0.58527l1.17054,0l0,0.58527l-1.17054,0zm2.92685,0l0,-0.58527l1.17053,0l0,0.58527l-1.17053,0zm2.92684,0l0,-0.58527l1.17054,0l0,0.58527l-1.17054,0zm2.92684,0l0,-0.58527l1.17054,0l0,0.58527l-1.17054,0zm2.92684,0l0,-0.1177l-0.17481,-0.17481l0,-1.05284l0.58527,0l0,1.05284l0,0.29301l-0.29301,0l-0.1177,0l0,-0.0005l0.00025,0zm0.41071,-3.10165l-0.58527,0l0,-1.17054l0.58527,0l0,1.17054zm0,-2.92684l-0.58527,0l0,-1.17054l0.58527,0l0,1.17054zm0,-2.92684l-0.58527,0l0,-1.17054l0.58527,0l0,1.17054zm0,-2.92684l-0.58527,0l0,-0.12093l-0.4641,0l0,-0.58527l0.7571,0l0.29301,0l0,0.29301l0,0.41393l-0.00074,-0.00074zm-2.80592,-0.7067l0,0.58527l-1.17054,0l0,-0.58527l1.17054,0zm-2.92684,0l0,0.58527l-1.17054,0l0,-0.58527l1.17054,0zm-2.92684,0l0,0.58527l-1.17054,0l0,-0.58527l1.17054,0zm-2.92684,0l0,0.58527l-1.17054,0l0,-0.58527l1.17054,0zm-2.92709,0l0,0.58527l-1.17054,0l0,-0.58527l1.17054,0zm-52.57563,1.2279l0.58527,0l0,1.17054l-0.58527,0l0,-1.17054zm0,2.92684l0.58527,0l0,1.17054l-0.58527,0l0,-1.17054zm0,2.92684l0.58527,0l0,1.17054l-0.58527,0l0,-1.17054zm0,2.92685l0.58527,0l0,1.17053l-0.58527,0l0,-1.17053zm0.93191,2.58044l0,-0.58527l1.17054,0l0,0.58527l-1.17054,0zm2.92685,0l0,-0.58527l1.17053,0l0,0.58527l-1.17053,0zm2.92684,0l0,-0.58527l1.17054,0l0,0.58527l-1.17054,0zm2.92684,0l0,-0.58527l1.17054,0l0,0.58527l-1.17054,0zm2.92684,0l0,-0.58527l1.17054,0l0,0.58527l-1.17054,0zm2.92709,0l0,-0.1177l-0.17481,-0.17481l0,-1.05284l0.58527,0l0,1.05284l0,0.29301l-0.29301,0l-0.1177,0l0.00025,-0.0005l0,0zm0.41021,-3.10165l-0.58527,0l0,-1.17054l0.58527,0l0,1.17054zm0,-2.92684l-0.58527,0l0,-1.17054l0.58527,0l0,1.17054zm0,-2.92684l-0.58527,0l0,-1.17054l0.58527,0l0,1.17054zm0,-2.92684l-0.58527,0l0,-0.12093l-0.46409,0l0,-0.58527l0.7571,0l0.293,0l0,0.29301l0,0.41393l-0.00074,-0.00074zm-2.80567,-0.7067l0,0.58527l-1.17053,0l0,-0.58527l1.17053,0zm-2.92684,0l0,0.58527l-1.17054,0l0,-0.58527l1.17054,0zm-2.92684,0l0,0.58527l-1.17054,0l0,-0.58527l1.17054,0zm-2.92684,0l0,0.58527l-1.17054,0l0,-0.58527l1.17054,0z"/>
     </g>
     <circle r="12.390717" cy="134.448211" cx="262.597611" fill="#ECF0F1" id="Oval"/>
     <path fill="#828282" id="Shape" d="m275.28084,134.44722c0,3.50218 -1.4196,6.67311 -3.71473,8.96825c-2.29514,2.29513 -5.46607,3.71473 -8.96825,3.71473c-3.50218,0 -6.67311,-1.4196 -8.96825,-3.71473c-2.29514,-2.29514 -3.71473,-5.46607 -3.71473,-8.96825l0.58527,0c0,3.34077 1.35429,6.3657 3.5434,8.55456c2.18886,2.18886 5.21378,3.5434 8.55456,3.5434c3.34077,0 6.3657,-1.35429 8.55456,-3.5434c2.18886,-2.18886 3.5434,-5.21379 3.5434,-8.55456l0.58477,0z"/>
     <path fill="#FFBA1B" id="Shape" d="m260.05913,129.45319l-2.90723,7.01056l5.27661,10.05138l0,-10.09558c-0.44299,-0.09684 -0.77423,-0.49165 -0.77423,-0.96295c0,-0.54479 0.44149,-0.98604 0.98604,-0.98604c0.5448,0 0.98604,0.4415 0.98604,0.98604c0,0.50159 -0.37445,0.91552 -0.8589,0.97785l0,10.08093l5.27611,-10.05138l-2.90723,-7.01056l-2.53823,0l-2.53873,0l-0.00025,0l0,-0.00025z"/>
     <g fill="#828282" id="Group">
      <polygon points="228.037939786911,115.80825221538544 255.7583827972412,115.80825221538544 255.7583827972412,116.39352107048035 228.037939786911,116.39352107048035 " id="Shape"/>
      <path id="Shape" d="m228.03794,115.13309c0.53437,0 0.96742,0.43306 0.96742,0.96742c0,0.53437 -0.43305,0.96742 -0.96742,0.96742c-0.53437,0 -0.96742,-0.43305 -0.96742,-0.96742c0,-0.53411 0.43305,-0.96742 0.96742,-0.96742z"/>
      <path id="Shape" d="m255.75888,115.13309c0.53436,0 0.96742,0.43306 0.96742,0.96742c0,0.53437 -0.43306,0.96742 -0.96742,0.96742c-0.53437,0 -0.96742,-0.43305 -0.96742,-0.96742c0,-0.53411 0.43305,-0.96742 0.96742,-0.96742z"/>
     </g>
     <path fill="#FF5B62" id="Shape" d="m259.12722,115.22125l6.94054,0l0,13.40854c0,0.45317 -0.37073,0.8234 -0.82365,0.8234l-5.29325,0c-0.45316,0 -0.82364,-0.36999 -0.82364,-0.8234l0,-13.40854z"/>
     <rect height="1.254219" width="6.93905" y="125.258967" x="259.127962" fill="#FFFFFF" id="Rectangle-path"/>
     <g fill="#828282" id="Group">
      <circle r="1" cy="146.896537" cx="262.597612" id="Oval"/>
      <path id="Shape" d="m250.207138,133.480047c0.53437,0 0.96742,0.43306 0.96742,0.96742c0,0.53437 -0.43305,0.96742 -0.96742,0.96742c-0.53436,0 -0.96741,-0.43305 -0.96741,-0.96742c0,-0.53436 0.43305,-0.96742 0.96741,-0.96742z"/>
      <path id="Shape" d="m274.988578,133.480047c0.53436,0 0.96742,0.43306 0.96742,0.96742c0,0.53437 -0.43306,0.96742 -0.96742,0.96742c-0.53437,0 -0.96742,-0.43305 -0.96742,-0.96742c0,-0.53436 0.4333,-0.96742 0.96742,-0.96742z"/>
     </g>
    </g>
   </g>
  </g>
  <rect id="svg_1" height="386.999999" width="605.000014" y="167.937501" x="636.499986" stroke-width="1.5" fill="#D3F9D8"/>
  <rect stroke="null" id="svg_24" height="413" width="618" y="-19.5" x="-36.5" stroke-width="1.5" fill="#CDF1FF"/>
  <g stroke="null" id="svg_159">
   <circle stroke="null" transform="matrix(0.5127571055424391,0,0,0.5127571055424391,-2311.7129320423023,-1444.7464805758723) " id="svg_91" fill="#FFAF10" r="245" cy="3156.767173" cx="5028.137087"/>
   <rect stroke="null" transform="matrix(0.5127571055424391,0,0,0.5127571055424391,-2311.7129320423023,-1444.7464805758723) " id="svg_92" fill="#445EA0" height="46.17" width="108" y="3280.597173" x="4946.767087"/>
   <rect stroke="null" transform="matrix(0.5127571055424391,0,0,0.5127571055424391,-2311.7129320423023,-1444.7464805758723) " id="svg_93" fill="#2E4C89" height="46.17" width="19.842" y="3280.597173" x="4946.767087"/>
   <path stroke="null" id="svg_94" fill="#293D7C" d="m306.051094,273.383197c0,1.410082 -1.153703,2.563786 -2.563786,2.563786l-102.040202,0c-1.410082,0 -2.563786,-1.153703 -2.563786,-2.563786l0,-10.255142c0,-1.410082 1.153703,-2.563786 2.563786,-2.563786l102.040202,0c1.410082,0 2.563786,1.153703 2.563786,2.563786l0,10.255142z"/>
   <path stroke="null" id="svg_95" fill="#1A2B63" d="m209.057447,273.383197l0,-10.255142c0,-1.410082 1.153703,-2.563786 2.563786,-2.563786l-10.174126,0c-1.410082,0 -2.563786,1.153703 -2.563786,2.563786l0,10.255142c0,1.410082 1.153703,2.563786 2.563786,2.563786l10.174126,0c-1.410082,0 -2.563786,-1.153703 -2.563786,-2.563786z"/>
   <path stroke="null" id="svg_96" fill="#293D7C" d="m135.234268,232.790268c0,2.820164 2.307407,5.127571 5.127571,5.127571l153.916864,0l0,-34.329601l-159.044435,0l0,29.20203z"/>
   <path stroke="null" id="svg_97" fill="#1A2B63" d="m145.408395,232.790268l0,-29.20203l-10.174126,0l0,29.20203c0,2.820164 2.307407,5.127571 5.127571,5.127571l10.174126,0c-2.820164,0 -5.127571,-2.307407 -5.127571,-5.127571z"/>
   <path stroke="null" id="svg_98" fill="#445EA0" d="m294.278703,189.797123c0,-1.131142 0.919886,-2.051028 2.051028,-2.051028l73.370414,0l0,-111.023194c0,-3.100129 -2.536097,-5.636226 -5.635713,-5.636226l-223.193938,0c-3.100129,0 -5.636226,2.536097 -5.636226,5.636226l0,127.378095l159.044435,0l0,-14.303872z"/>
   <path stroke="null" id="svg_99" fill="#EEF6FF" d="m294.278703,189.797123c0,-1.131142 0.919886,-2.051028 2.051028,-2.051028l62.098475,0l0,-102.823182c0,-1.410082 -1.153703,-2.563786 -2.563786,-2.563786l-206.793915,0c-1.410082,0 -2.563786,1.153703 -2.563786,2.563786l0,105.341333c0,1.410082 1.153703,2.563786 2.563786,2.563786l145.207685,0l0.000513,-3.030907l0,0z"/>
   <circle stroke="null" transform="matrix(0.5127571055424391,0,0,0.5127571055424391,-2311.7129320423023,-1444.7464805758723) " id="svg_100" fill="#445EA0" r="13.911" cy="3248.977173" cx="5000.767087"/>
   <path stroke="null" id="svg_101" fill="#FFAF10" d="m348.726329,148.46326c0,1.410082 -1.153703,2.563786 -2.563786,2.563786l-81.249953,0c-1.410082,0 -2.563786,-1.153703 -2.563786,-2.563786l0,-37.286671c0,-1.410082 1.153703,-2.563786 2.563786,-2.563786l81.249953,0c1.410082,0 2.563786,1.153703 2.563786,2.563786l0,37.286671l0,0z"/>
   <path stroke="null" id="svg_102" fill="#FF9518" d="m272.523445,148.46326l0,-37.286671c0,-1.410082 1.153703,-2.563786 2.563786,-2.563786l-10.174126,0c-1.410082,0 -2.563786,1.153703 -2.563786,2.563786l0,37.286671c0,1.410082 1.153703,2.563786 2.563786,2.563786l10.174126,0c-1.410082,0 -2.563786,-1.153703 -2.563786,-2.563786z"/>
   <g stroke="null" transform="matrix(0.5127571055424391,0,0,0.5127571055424391,-2311.7129320423023,-1444.7464805758723) " id="svg_103">
    <path stroke="null" id="svg_104" fill="#C3DDF4" d="m5071.403318,3140.888076l-43.112,0c-4.142,0 -7.5,-3.357 -7.5,-7.5s3.358,-7.5 7.5,-7.5l43.112,0c4.142,0 7.5,3.357 7.5,7.5s-3.358,7.5 -7.5,7.5z"/>
    <path stroke="null" id="svg_105" fill="#C3DDF4" d="m5071.403318,3163.683076l-43.112,0c-4.142,0 -7.5,-3.357 -7.5,-7.5s3.358,-7.5 7.5,-7.5l43.112,0c4.142,0 7.5,3.357 7.5,7.5s-3.358,7.5 -7.5,7.5z"/>
    <path stroke="null" id="svg_106" fill="#C3DDF4" d="m5123.417318,3140.888076l-32.06,0c-4.142,0 -7.5,-3.357 -7.5,-7.5s3.358,-7.5 7.5,-7.5l32.06,0c4.142,0 7.5,3.357 7.5,7.5s-3.358,7.5 -7.5,7.5z"/>
    <path stroke="null" id="svg_107" fill="#C3DDF4" d="m5123.417318,3163.683076l-32.06,0c-4.142,0 -7.5,-3.357 -7.5,-7.5s3.358,-7.5 7.5,-7.5l32.06,0c4.142,0 7.5,3.357 7.5,7.5s-3.358,7.5 -7.5,7.5z"/>
    <path stroke="null" id="svg_108" fill="#C3DDF4" d="m5183.909318,3140.888076l-40.836,0c-4.142,0 -7.5,-3.357 -7.5,-7.5s3.358,-7.5 7.5,-7.5l40.836,0c4.142,0 7.5,3.357 7.5,7.5s-3.358,7.5 -7.5,7.5z"/>
    <path stroke="null" id="svg_109" fill="#C3DDF4" d="m5183.909318,3163.683076l-40.836,0c-4.142,0 -7.5,-3.357 -7.5,-7.5s3.358,-7.5 7.5,-7.5l40.836,0c4.142,0 7.5,3.357 7.5,7.5s-3.358,7.5 -7.5,7.5z"/>
   </g>
   <g stroke="null" transform="matrix(0.5127571055424391,0,0,0.5127571055424391,-2311.7129320423023,-1444.7464805758723) " id="svg_110">
    <path stroke="null" id="svg_111" fill="#EF8318" d="m5131.502318,3011.851076c0,2.75 -2.25,5 -5,5l-10.999,0c-2.75,0 -5,-2.25 -5,-5l0,-10.999c0,-2.75 2.25,-5 5,-5l10.999,0c2.75,0 5,2.25 5,5l0,10.999z"/>
    <path stroke="null" id="svg_112" fill="#EF8318" d="m5159.500318,3011.851076c0,2.75 -2.25,5 -5,5l-10.999,0c-2.75,0 -5,-2.25 -5,-5l0,-10.999c0,-2.75 2.25,-5 5,-5l10.999,0c2.75,0 5,2.25 5,5l0,10.999z"/>
    <path stroke="null" id="svg_113" fill="#EF8318" d="m5187.498318,3011.851076c0,2.75 -2.25,5 -5,5l-10.999,0c-2.75,0 -5,-2.25 -5,-5l0,-10.999c0,-2.75 2.25,-5 5,-5l10.999,0c2.75,0 5,2.25 5,5l0,10.999z"/>
   </g>
   <g stroke="null" transform="matrix(0.5127571055424391,0,0,0.5127571055424391,-2311.7129320423023,-1444.7464805758723) " id="svg_114">
    <path stroke="null" id="svg_115" fill="#69CDFF" d="m4963.035318,3157.772076l-9,0c-4.142,0 -7.5,-3.357 -7.5,-7.5s3.358,-7.5 7.5,-7.5l9,0c4.142,0 7.5,3.357 7.5,7.5c0,4.143 -3.358,7.5 -7.5,7.5z"/>
    <path stroke="null" id="svg_116" fill="#69CDFF" d="m4929.035318,3157.772076l-9,0c-4.142,0 -7.5,-3.357 -7.5,-7.5s3.358,-7.5 7.5,-7.5l9,0c4.142,0 7.5,3.357 7.5,7.5c0,4.143 -3.358,7.5 -7.5,7.5z"/>
    <path stroke="null" id="svg_117" fill="#69CDFF" d="m4895.034318,3157.772076l-9,0c-4.142,0 -7.5,-3.357 -7.5,-7.5s3.358,-7.5 7.5,-7.5l9,0c4.142,0 7.5,3.357 7.5,7.5c0.001,4.143 -3.357,7.5 -7.5,7.5z"/>
    <path stroke="null" id="svg_118" fill="#69CDFF" d="m4861.034318,3157.772076l-9,0c-4.142,0 -7.5,-3.357 -7.5,-7.5s3.358,-7.5 7.5,-7.5l9,0c4.142,0 7.5,3.357 7.5,7.5c0,4.143 -3.357,7.5 -7.5,7.5z"/>
    <path stroke="null" id="svg_119" fill="#69CDFF" d="m4992.285318,3126.873076c-4.142,0 -7.5,-3.357 -7.5,-7.5l0,-9c0,-4.142 3.358,-7.5 7.5,-7.5s7.5,3.358 7.5,7.5l0,9c0,4.143 -3.358,7.5 -7.5,7.5z"/>
    <path stroke="null" id="svg_120" fill="#69CDFF" d="m4992.285318,3092.873076c-4.142,0 -7.5,-3.357 -7.5,-7.5l0,-9c0,-4.142 3.358,-7.5 7.5,-7.5s7.5,3.358 7.5,7.5l0,9c0,4.143 -3.358,7.5 -7.5,7.5z"/>
    <path stroke="null" id="svg_121" fill="#69CDFF" d="m4992.285318,3058.873076c-4.142,0 -7.5,-3.357 -7.5,-7.5l0,-9c0,-4.142 3.358,-7.5 7.5,-7.5s7.5,3.358 7.5,7.5l0,9c0,4.143 -3.358,7.5 -7.5,7.5z"/>
    <path stroke="null" id="svg_122" fill="#69CDFF" d="m4822.284318,3126.873076c-4.142,0 -7.5,-3.357 -7.5,-7.5l0,-9c0,-4.142 3.358,-7.5 7.5,-7.5s7.5,3.358 7.5,7.5l0,9c0,4.143 -3.357,7.5 -7.5,7.5z"/>
    <path stroke="null" id="svg_123" fill="#69CDFF" d="m4822.284318,3092.873076c-4.142,0 -7.5,-3.357 -7.5,-7.5l0,-9c0,-4.142 3.358,-7.5 7.5,-7.5s7.5,3.358 7.5,7.5l0,9c0,4.143 -3.357,7.5 -7.5,7.5z"/>
    <path stroke="null" id="svg_124" fill="#69CDFF" d="m4822.284318,3058.873076c-4.142,0 -7.5,-3.357 -7.5,-7.5l0,-9c0,-4.142 3.358,-7.5 7.5,-7.5s7.5,3.358 7.5,7.5l0,9c0,4.143 -3.357,7.5 -7.5,7.5z"/>
    <path stroke="null" id="svg_125" fill="#69CDFF" d="m4963.035318,3021.772076l-9,0c-4.142,0 -7.5,-3.357 -7.5,-7.5s3.358,-7.5 7.5,-7.5l9,0c4.142,0 7.5,3.357 7.5,7.5s-3.358,7.5 -7.5,7.5z"/>
    <path stroke="null" id="svg_126" fill="#69CDFF" d="m4929.035318,3021.772076l-9,0c-4.142,0 -7.5,-3.357 -7.5,-7.5s3.358,-7.5 7.5,-7.5l9,0c4.142,0 7.5,3.357 7.5,7.5s-3.358,7.5 -7.5,7.5z"/>
    <path stroke="null" id="svg_127" fill="#69CDFF" d="m4895.034318,3021.772076l-9,0c-4.142,0 -7.5,-3.357 -7.5,-7.5s3.358,-7.5 7.5,-7.5l9,0c4.142,0 7.5,3.357 7.5,7.5s-3.357,7.5 -7.5,7.5z"/>
    <path stroke="null" id="svg_128" fill="#69CDFF" d="m4861.034318,3021.772076l-9,0c-4.142,0 -7.5,-3.357 -7.5,-7.5s3.358,-7.5 7.5,-7.5l9,0c4.142,0 7.5,3.357 7.5,7.5s-3.357,7.5 -7.5,7.5z"/>
   </g>
   <path stroke="null" id="svg_129" fill="#5DC1D8" d="m237.861577,157.759033c0,1.410082 -1.153703,2.563786 -2.563786,2.563786l-61.530853,0c-1.410082,0 -2.563786,-1.153703 -2.563786,-2.563786l0,-44.097111c0,-1.410082 1.153703,-2.563786 2.563786,-2.563786l61.530853,0c1.410082,0 2.563786,1.153703 2.563786,2.563786l0,44.097111z"/>
   <path stroke="null" id="svg_130" fill="#28A5A5" d="m181.37728,157.759033l0,-44.097111c0,-1.410082 1.153703,-2.563786 2.563786,-2.563786l-10.174639,0c-1.410082,0 -2.563786,1.153703 -2.563786,2.563786l0,44.097111c0,1.410082 1.153703,2.563786 2.563786,2.563786l10.174639,0c-1.410082,0 -2.563786,-1.153703 -2.563786,-2.563786z"/>
   <g stroke="null" transform="matrix(0.5127571055424391,0,0,0.5127571055424391,-2311.7129320423023,-1444.7464805758723) " id="svg_131">
    <path stroke="null" id="svg_132" fill="#52BBEF" d="m5006.282318,3021.776076c0,2.75 -2.25,5 -5,5l-21,0c-2.75,0 -5,-2.25 -5,-5l0,-21c0,-2.75 2.25,-5 5,-5l21,0c2.75,0 5,2.25 5,5l0,21z"/>
    <path stroke="null" id="svg_133" fill="#52BBEF" d="m4840.282318,3023.776076c0,2.75 -2.25,5 -5,5l-21,0c-2.75,0 -5,-2.25 -5,-5l0,-21c0,-2.75 2.25,-5 5,-5l21,0c2.75,0 5,2.25 5,5l0,21z"/>
    <path stroke="null" id="svg_134" fill="#52BBEF" d="m5006.282318,3161.650076c0,2.75 -2.25,5 -5,5l-21,0c-2.75,0 -5,-2.25 -5,-5l0,-21c0,-2.75 2.25,-5 5,-5l21,0c2.75,0 5,2.25 5,5l0,21z"/>
    <path stroke="null" id="svg_135" fill="#52BBEF" d="m4840.282318,3161.650076c0,2.75 -2.25,5 -5,5l-21,0c-2.75,0 -5,-2.25 -5,-5l0,-21c0,-2.75 2.25,-5 5,-5l21,0c2.75,0 5,2.25 5,5l0,21z"/>
   </g>
   <g stroke="null" transform="matrix(0.5127571055424391,0,0,0.5127571055424391,-2311.7129320423023,-1444.7464805758723) " id="svg_136">
    <path stroke="null" id="svg_137" fill="#1E99D6" d="m4986.304318,3021.776076l0,-21c0,-2.75 2.25,-5 5,-5l-11.022,0c-2.75,0 -5,2.25 -5,5l0,21c0,2.75 2.25,5 5,5l11.022,0c-2.75,0 -5,-2.25 -5,-5z"/>
    <path stroke="null" id="svg_138" fill="#1E99D6" d="m4820.304318,3023.776076l0,-21c0,-2.75 2.25,-5 5,-5l-11.022,0c-2.75,0 -5,2.25 -5,5l0,21c0,2.75 2.25,5 5,5l11.022,0c-2.75,0 -5,-2.25 -5,-5z"/>
    <path stroke="null" id="svg_139" fill="#1E99D6" d="m4986.304318,3161.650076l0,-21c0,-2.75 2.25,-5 5,-5l-11.022,0c-2.75,0 -5,2.25 -5,5l0,21c0,2.75 2.25,5 5,5l11.022,0c-2.75,0 -5,-2.25 -5,-5z"/>
    <path stroke="null" id="svg_140" fill="#1E99D6" d="m4820.304318,3161.650076l0,-21c0,-2.75 2.25,-5 5,-5l-11.022,0c-2.75,0 -5,2.25 -5,5l0,21c0,2.75 2.25,5 5,5l11.022,0c-2.75,0 -5,-2.25 -5,-5z"/>
   </g>
   <path stroke="null" id="svg_141" fill="#5DC1D8" d="m358.518452,230.707961c-0.079477,-0.216383 -0.073324,-0.339445 -0.062044,-0.37944c0.000513,0 0.031791,-0.003077 0.061018,-0.003077c0.058454,0 0.160493,0.011793 0.314833,0.068709l21.589125,7.929789l0,-48.526307c0,-1.410082 -1.153703,-2.563786 -2.563786,-2.563786l-81.52838,0c-1.410082,0 -2.563786,1.153703 -2.563786,2.563786l0,58.864516c0,1.410082 1.153703,2.563786 2.563786,2.563786l69.724711,0l-7.535478,-20.517976z"/>
   <path stroke="null" id="svg_142" fill="#28A5A5" d="m303.940073,248.661638l0,-58.864516c0,-1.410082 1.153703,-2.563786 2.563786,-2.563786l-10.174126,0c-1.410082,0 -2.563786,1.153703 -2.563786,2.563786l0,58.864516c0,1.410082 1.153703,2.563786 2.563786,2.563786l10.174126,0c-1.410082,0 -2.563786,-1.153703 -2.563786,-2.563786z"/>
   <path stroke="null" id="svg_143" fill="#293D7C" d="m359.00916,229.912675c-0.844511,-0.310218 -1.282406,0.127164 -0.972187,0.972187l13.518841,36.806731c0.310218,0.845024 1.084994,1.015259 1.721326,0.378928l7.177061,-7.177061c0.636332,-0.636332 1.677741,-0.636332 2.315098,0l8.269747,8.270772c0.636332,0.636332 1.677741,0.636332 2.314586,0l3.934898,-3.934898c0.636332,-0.636332 0.636332,-1.678254 0,-2.314586l-8.270259,-8.270259c-0.636332,-0.636332 -0.636332,-1.677741 0,-2.314586l7.176548,-7.177061c0.636844,-0.635819 0.466096,-1.410595 -0.378928,-1.720813l-36.806731,-13.519354z"/>
   <g stroke="null" transform="matrix(0.5127571055424391,0,0,0.5127571055424391,-2311.7129320423023,-1444.7464805758723) " id="svg_144"/>
   <g stroke="null" transform="matrix(0.5127571055424391,0,0,0.5127571055424391,-2311.7129320423023,-1444.7464805758723) " id="svg_145"/>
   <g stroke="null" transform="matrix(0.5127571055424391,0,0,0.5127571055424391,-2311.7129320423023,-1444.7464805758723) " id="svg_146"/>
   <g stroke="null" transform="matrix(0.5127571055424391,0,0,0.5127571055424391,-2311.7129320423023,-1444.7464805758723) " id="svg_147"/>
   <g stroke="null" transform="matrix(0.5127571055424391,0,0,0.5127571055424391,-2311.7129320423023,-1444.7464805758723) " id="svg_148"/>
   <g stroke="null" transform="matrix(0.5127571055424391,0,0,0.5127571055424391,-2311.7129320423023,-1444.7464805758723) " id="svg_149"/>
   <g stroke="null" transform="matrix(0.5127571055424391,0,0,0.5127571055424391,-2311.7129320423023,-1444.7464805758723) " id="svg_150"/>
   <g stroke="null" transform="matrix(0.5127571055424391,0,0,0.5127571055424391,-2311.7129320423023,-1444.7464805758723) " id="svg_151"/>
   <g stroke="null" transform="matrix(0.5127571055424391,0,0,0.5127571055424391,-2311.7129320423023,-1444.7464805758723) " id="svg_152"/>
   <g stroke="null" transform="matrix(0.5127571055424391,0,0,0.5127571055424391,-2311.7129320423023,-1444.7464805758723) " id="svg_153"/>
   <g stroke="null" transform="matrix(0.5127571055424391,0,0,0.5127571055424391,-2311.7129320423023,-1444.7464805758723) " id="svg_154"/>
   <g stroke="null" transform="matrix(0.5127571055424391,0,0,0.5127571055424391,-2311.7129320423023,-1444.7464805758723) " id="svg_155"/>
   <g stroke="null" transform="matrix(0.5127571055424391,0,0,0.5127571055424391,-2311.7129320423023,-1444.7464805758723) " id="svg_156"/>
   <g stroke="null" transform="matrix(0.5127571055424391,0,0,0.5127571055424391,-2311.7129320423023,-1444.7464805758723) " id="svg_157"/>
   <g stroke="null" transform="matrix(0.5127571055424391,0,0,0.5127571055424391,-2311.7129320423023,-1444.7464805758723) " id="svg_158"/>
  </g>
 </g>
</svg>