<svg width="532" height="343" xmlns="http://www.w3.org/2000/svg">
 <!-- Generator: Sketch 45.1 (43504) - http://www.bohemiancoding.com/sketch -->
 <title>Artboard Copy 2</title>
 <desc>Created with Sketch.</desc>

 <g>
  <title>background</title>
  <rect fill="none" id="canvas_background" height="402" width="582" y="-1" x="-1"/>
 </g>
 <g>
  <title>Layer 1</title>
  <g fill-rule="evenodd" fill="none" id="Page-1">
   <g id="Artboard-Copy-2">
    <rect height="343" width="532" y="0" x="0" fill="#D3F9D8" id="Rectangle"/>
    <g fill-rule="nonzero" id="startup">
     <circle r="124.999512" cy="171.999512" cx="265.999512" fill="#FF5B62" id="Oval"/>
     <ellipse ry="7.016113" rx="89.005371" cy="252.880859" cx="265.999512" fill="#ED4C54" id="Oval"/>
     <path fill="#666666" id="Shape" d="m173.21729,79.82324l185.56445,0c6.09668,0 11.08496,4.98877 11.08496,11.08496l0,114.30909l-207.73438,0l0,-114.30958c0,-6.09667 4.9878,-11.08447 11.08497,-11.08447z"/>
     <path fill="#21D0C3" id="Shape" d="m169.65967,197.69141l192.6792,0l0,-106.78272c0,-1.94189 -1.61621,-3.5581 -3.55713,-3.5581l-185.56348,0c-1.94189,0 -3.55713,1.61621 -3.55713,3.5581l0,106.7832l-0.00146,0l0,-0.00048z"/>
     <path fill="#FFFFFF" id="Shape" d="m369.86572,205.21826l0,12.12207c0,6.09815 -5.49804,11.08496 -12.21924,11.08496l-183.29492,0c-6.72119,0 -12.21924,-4.98681 -12.21924,-11.08496l0,-12.12207l207.7334,0z"/>
     <path opacity="0" fill="#ECF0F1" id="Shape" d="m182.95996,133.05908c17.62158,0 32.50635,11.70996 37.30225,27.77149c7.85547,3.54541 13.60888,10.92529 14.87597,19.75195c1.38428,-0.33301 2.83057,-0.51025 4.31739,-0.51025c4.27636,0 8.21191,1.45752 11.33642,3.90332c0.98194,-6.2002 6.35205,-10.94141 12.82861,-10.94141c0.81299,0 1.6084,0.07568 2.37891,0.21826c0.771,-0.14306 1.56641,-0.21826 2.37891,-0.21826c6.47656,0 11.84668,4.74121 12.82861,10.94141c3.12402,-2.4458 7.06055,-3.90332 11.33594,-3.90332c1.48682,0 2.93164,0.17773 4.31738,0.51025c1.26709,-8.82715 7.02051,-16.20703 14.87598,-19.75195c4.79736,-16.06153 19.68115,-27.77149 37.30224,-27.77149c4.67139,0 9.14991,0.82373 13.3003,2.33203l0,62.29981l-88.18457,0l0.00097,-0.03028l-0.06054,0.03028l-16.18848,0l-0.06055,-0.03028l0.00098,0.03028l-88.18555,0l0,-62.29981c4.14991,-1.5083 8.62842,-2.33203 13.3003,-2.33203l-0.00147,0l0,0z"/>
     <g id="Group-3">
      <g fill="#FFFFFF" id="Group">
       <path id="Shape" d="m210.03174,98.858888l103.94385,0l15.47265,0c1.875,0 3.40869,1.53516 3.40869,3.40869l0,20.28662l0,74.09375l-141.70703,0l-0.00049,-0.00098l0,-74.09179l0,-20.28711c0,-1.875 1.53418,-3.40869 3.4087,-3.40869c0.00048,-0.00049 15.47363,-0.00049 15.47363,-0.00049z"/>
      </g>
      <g id="Group-2">
       <path fill="#828282" id="Shape" d="m195.55469,99.593258l134.89013,0c1.875,0 3.4087,1.53418 3.4087,3.4087l0,6.81738l-141.70801,0l0,-6.81738c0,-1.875 1.53369,-3.4087 3.40918,-3.4087z"/>
       <path fill="#FFFFFF" id="Shape" d="m255.2334,103.124028l68.45215,0c0.50439,0 0.91552,0.41113 0.91552,0.91552l0,1.69873c0,0.5044 -0.41113,0.91553 -0.91552,0.91553l-68.45215,0c-0.5044,0 -0.91553,-0.41113 -0.91553,-0.91553l0,-1.69873c0,-0.50342 0.41162,-0.91552 0.91553,-0.91552z"/>
       <path fill="#21D0C3" id="Shape" d="m198.9458,102.516598c1.0835,0 1.9624,0.87745 1.9624,1.96241c0,1.08447 -0.87939,1.9624 -1.9624,1.9624c-1.08496,0 -1.96435,-0.87793 -1.96435,-1.9624c0,-1.08496 0.87939,-1.96241 1.96435,-1.96241z"/>
       <path fill="#FAD24D" id="Shape" d="m206.69336,102.516598c1.08496,0 1.9624,0.87745 1.9624,1.96241c0,1.08447 -0.87744,1.9624 -1.9624,1.9624c-1.08398,0 -1.9624,-0.87793 -1.9624,-1.9624c-0.00049,-1.08496 0.8789,-1.96241 1.9624,-1.96241z"/>
       <path fill="#FF5B62" id="Shape" d="m214.44287,102.516598c1.0835,0 1.96192,0.87745 1.96192,1.96241c0,1.08447 -0.87842,1.9624 -1.96192,1.9624c-1.08545,0 -1.96435,-0.87793 -1.96435,-1.9624c0,-1.08496 0.8789,-1.96241 1.96435,-1.96241z"/>
       <polygon points="200,114.69091796875 326.36962890625,114.69091796875 326.36962890625,156.3779296875 200,156.3779296875 " fill="#ECF0F1" id="Shape"/>
       <path fill="#FF5B62" id="Shape" d="m218.56396,161.342778c4.63965,0 8.4004,3.76074 8.4004,8.40039c0,4.63867 -3.76075,8.40039 -8.4004,8.40039c-4.63867,0 -8.39941,-3.76123 -8.39941,-8.40039c-0.00049,-4.63965 3.76025,-8.40039 8.39941,-8.40039z"/>
       <path fill="#21D0C3" id="Shape" d="m263,161.342778c4.63867,0 8.39941,3.76074 8.39941,8.40039c0,4.63867 -3.76074,8.40039 -8.39941,8.40039c-4.63867,0 -8.39941,-3.76123 -8.39941,-8.40039c-0.00049,-4.63965 3.76025,-8.40039 8.39941,-8.40039z"/>
       <path fill="#FAD24D" id="Shape" d="m307.43555,161.342778c4.63867,0 8.39941,3.76074 8.39941,8.40039c0,4.63867 -3.76074,8.40039 -8.39941,8.40039c-4.63965,0 -8.40039,-3.76123 -8.40039,-8.40039c0,-4.63965 3.76074,-8.40039 8.40039,-8.40039z"/>
       <g fill="#DCE3DB" id="Group">
        <path id="Shape" d="m192.15186,99.155278l24.10644,0l0,1.30712l-24.10644,0l0,-1.30712zm0,8.21777l16.1914,0l0,1.30713l-16.1914,0l0,-1.30713l0,0zm0,-4.10889l24.10644,0l0,1.30664l-24.10644,0l0,-1.30664z"/>
        <path id="Shape" d="m236.5874,99.155278l24.10596,0l0,1.30712l-24.10596,0l0,-1.30712l0,0zm0,8.21777l16.19239,0l0,1.30713l-16.19239,0l0,-1.30713l0,0zm0,-4.10889l24.10596,0l0,1.30664l-24.10596,0l0,-1.30664l0,0z"/>
        <path id="Shape" d="m281.02441,99.155278l24.10499,0l0,1.30712l-24.10499,0l0,-1.30712zm0,8.21777l16.19092,0l0,1.30713l-16.19092,0l0,-1.30713zm0,-4.10889l24.10499,0l0,1.30664l-24.10499,0l0,-1.30664z"/>
       </g>
      </g>
     </g>
     <circle r="3.816406" cy="216.336426" cx="265.999512" fill="#B6B6B8" id="Oval"/>
     <polygon points="289.95703125,245.86328125 307.58154296875,251.5107421875 224.416015625,251.5107421875 238.63671875,245.86328125 238.63671875,228.42578125 289.95751953125,228.42578125 289.95751953125,245.86328125 " fill="#C2C2C4" id="Shape"/>
     <polygon points="289.95703125,245.86328125 238.63623046875,228.42578125 289.95703125,228.42578125 " fill="#B0B0B0" id="Shape"/>
     <polygon points="238.63623046875,245.86328125 289.95703125,245.86328125 307.58154296875,251.5107421875 307.58154296875,253.9423828125 266,253.9423828125 224.416015625,253.9423828125 224.416015625,251.5107421875 " fill="#ECF0F1" id="Shape"/>
    </g>
    <g fill-rule="nonzero" id="Group-5">
     <g fill="#C9CACC" id="Group">
      <path id="Shape" d="m228.62966,115.01142l0,0.58527l-1.17053,0l0,-0.58527l1.17053,0zm-1.46329,1.0655l0.58527,0l0,1.17054l-0.58527,0l0,-1.17054zm0,2.92685l0.58527,0l0,1.17053l-0.58527,0l0,-1.17053zm0,2.92709l0.58527,0l0,1.17053l-0.58527,0l0,-1.17053zm0,2.92684l0.58527,0l0,1.17053l-0.58527,0l0,-1.17053zm0,2.92684l0.58527,0l0,1.17054l-0.58527,0l0,-1.17054zm0,2.92684l0.58527,0l0,1.17054l-0.58527,0l0,-1.17054zm0.9118,2.60056l0,-0.58527l1.17053,0l0,0.58527l-1.17053,0zm2.92709,0l0,-0.58527l1.17053,0l0,0.58527l-1.17053,0zm2.92684,0l0,-0.58527l1.17054,0l0,0.58527l-1.17054,0zm2.92684,0l0,-0.58527l1.17054,0l0,0.58527l-1.17054,0zm2.92684,0l0,-0.58527l1.17054,0l0,0.58527l-1.17054,0zm2.92684,0l0,-0.58527l1.17054,0l0,0.58527l-1.17054,0zm2.92684,0l0,-0.58527l1.17054,0l0,0.58527l-1.17054,0zm2.92709,0l0,-0.58527l1.17054,0l0,0.58527l-1.17054,0zm2.92684,0l0,-0.58527l1.17054,0l0,0.58527l-1.17054,0zm2.92684,0l0,-0.58527l1.17054,0l0,0.58527l-1.17054,0zm2.92685,0l0,-0.58527l1.17053,0l0,0.58527l-1.17053,0zm2.92684,0l0,-0.58527l1.17054,0l0,0.58527l-1.17054,0zm2.92684,0l0,-0.58527l1.17054,0l0,0.58527l-1.17054,0zm2.92709,0l0,-0.58527l1.17054,0l0,0.58527l-1.17054,0zm2.92659,0l0,-0.58527l1.17054,0l0,0.58527l-1.17054,0zm2.92684,0l0,-0.58527l1.17054,0l0,0.58527l-1.17054,0zm2.92684,0l0,-0.58527l1.17054,0l0,0.58527l-1.17054,0zm2.92685,0l0,-0.58527l1.17053,0l0,0.58527l-1.17053,0zm2.92684,0l0,-0.58527l1.17053,0l0,0.58527l-1.17053,0zm2.92709,0l0,-0.58527l1.17053,0l0,0.58527l-1.17053,0zm2.92684,0l0,-0.58527l1.17054,0l0,0.58527l-1.17054,0zm2.92684,0l0,-0.58527l1.17054,0l0,0.58527l-1.17054,0zm2.92684,0l0,-0.58527l1.17054,0l0,0.58527l-1.17054,0zm2.92684,0l0,-0.58527l1.17054,0l0,0.58527l-1.17054,0zm1.95495,-1.55716l-0.58527,0l0,-1.17054l0.58527,0l0,1.17054zm0,-2.92684l-0.58527,0l0,-1.17054l0.58527,0l0,1.17054zm0,-2.92709l-0.58527,0l0,-1.17054l0.58527,0l0,1.17054zm0,-2.92659l-0.58527,0l0,-1.17054l0.58527,0l0,1.17054zm0,-2.92684l-0.58527,0l0,-1.17054l0.58527,0l0,1.17054zm0,-2.92684l-0.58527,0l0,-1.17054l0.58527,0l0,1.17054zm-1.40419,-2.10866l0,0.58527l-1.17054,0l0,-0.58527l1.17054,0zm-2.9266,0l0,0.58527l-1.17054,0l0,-0.58527l1.17054,0zm-2.92709,0l0,0.58527l-1.17054,0l0,-0.58527l1.17054,0zm-2.92684,0l0,0.58527l-1.17054,0l0,-0.58527l1.17054,0zm-2.92684,0l0,0.58527l-1.17054,0l0,-0.58527l1.17054,0zm-2.92684,0l0,0.58527l-1.17054,0l0,-0.58527l1.17054,0zm-2.92684,0l0,0.58527l-1.17054,0l0,-0.58527l1.17054,0zm-2.92684,0l0,0.58527l-1.17054,0l0,-0.58527l1.17054,0zm-2.92709,0l0,0.58527l-1.17054,0l0,-0.58527l1.17054,0zm-2.92684,0l0,0.58527l-1.17054,0l0,-0.58527l1.17054,0zm-2.92685,0l0,0.58527l-1.17053,0l0,-0.58527l1.17053,0zm-2.92684,0l0,0.58527l-1.17054,0l0,-0.58527l1.17054,0zm-2.92684,0l0,0.58527l-1.17054,0l0,-0.58527l1.17054,0zm-2.92684,0l0,0.58527l-1.17054,0l0,-0.58527l1.17054,0zm-2.92709,0l0,0.58527l-1.17054,0l0,-0.58527l1.17054,0zm-2.92659,0l0,0.58527l-1.17054,0l0,-0.58527l1.17054,0zm-2.92684,0l0,0.58527l-1.17054,0l0,-0.58527l1.17054,0zm-2.92685,0l0,0.58527l-1.17053,0l0,-0.58527l1.17053,0zm-2.92684,0l0,0.58527l-1.17053,0l0,-0.58527l1.17053,0zm-2.92684,0l0,0.58527l-1.17054,0l0,-0.58527l1.17054,0zm-2.92709,0l0,0.58527l-1.17054,0l0,-0.58527l1.17054,0zm-2.92684,0l0,0.58527l-1.17054,0l0,-0.58527l1.17054,0zm-2.92684,0l0,0.58527l-1.17054,0l0,-0.58527l1.17054,0z"/>
      <path id="Shape" d="m230.17863,139.69626l0,0.58527l-1.17054,0l0,-0.58527l1.17054,0zm49.64878,1.2279l0.58527,0l0,1.17054l-0.58527,0l0,-1.17054zm0,2.92684l0.58527,0l0,1.17054l-0.58527,0l0,-1.17054zm0,2.92684l0.58527,0l0,1.17054l-0.58527,0l0,-1.17054zm0,2.92685l0.58527,0l0,1.17053l-0.58527,0l0,-1.17053zm0.93167,2.58044l0,-0.58527l1.17053,0l0,0.58527l-1.17053,0zm2.92708,0l0,-0.58527l1.17054,0l0,0.58527l-1.17054,0zm2.92685,0l0,-0.58527l1.17053,0l0,0.58527l-1.17053,0zm2.92684,0l0,-0.58527l1.17054,0l0,0.58527l-1.17054,0zm2.92684,0l0,-0.58527l1.17054,0l0,0.58527l-1.17054,0zm2.92684,0l0,-0.1177l-0.17481,-0.17481l0,-1.05284l0.58527,0l0,1.05284l0,0.29301l-0.29301,0l-0.1177,0l0,-0.0005l0.00025,0zm0.41071,-3.10165l-0.58527,0l0,-1.17054l0.58527,0l0,1.17054zm0,-2.92684l-0.58527,0l0,-1.17054l0.58527,0l0,1.17054zm0,-2.92684l-0.58527,0l0,-1.17054l0.58527,0l0,1.17054zm0,-2.92684l-0.58527,0l0,-0.12093l-0.4641,0l0,-0.58527l0.7571,0l0.29301,0l0,0.29301l0,0.41393l-0.00074,-0.00074zm-2.80592,-0.7067l0,0.58527l-1.17054,0l0,-0.58527l1.17054,0zm-2.92684,0l0,0.58527l-1.17054,0l0,-0.58527l1.17054,0zm-2.92684,0l0,0.58527l-1.17054,0l0,-0.58527l1.17054,0zm-2.92684,0l0,0.58527l-1.17054,0l0,-0.58527l1.17054,0zm-2.92709,0l0,0.58527l-1.17054,0l0,-0.58527l1.17054,0zm-52.57563,1.2279l0.58527,0l0,1.17054l-0.58527,0l0,-1.17054zm0,2.92684l0.58527,0l0,1.17054l-0.58527,0l0,-1.17054zm0,2.92684l0.58527,0l0,1.17054l-0.58527,0l0,-1.17054zm0,2.92685l0.58527,0l0,1.17053l-0.58527,0l0,-1.17053zm0.93191,2.58044l0,-0.58527l1.17054,0l0,0.58527l-1.17054,0zm2.92685,0l0,-0.58527l1.17053,0l0,0.58527l-1.17053,0zm2.92684,0l0,-0.58527l1.17054,0l0,0.58527l-1.17054,0zm2.92684,0l0,-0.58527l1.17054,0l0,0.58527l-1.17054,0zm2.92684,0l0,-0.58527l1.17054,0l0,0.58527l-1.17054,0zm2.92709,0l0,-0.1177l-0.17481,-0.17481l0,-1.05284l0.58527,0l0,1.05284l0,0.29301l-0.29301,0l-0.1177,0l0.00025,-0.0005l0,0zm0.41021,-3.10165l-0.58527,0l0,-1.17054l0.58527,0l0,1.17054zm0,-2.92684l-0.58527,0l0,-1.17054l0.58527,0l0,1.17054zm0,-2.92684l-0.58527,0l0,-1.17054l0.58527,0l0,1.17054zm0,-2.92684l-0.58527,0l0,-0.12093l-0.46409,0l0,-0.58527l0.7571,0l0.293,0l0,0.29301l0,0.41393l-0.00074,-0.00074zm-2.80567,-0.7067l0,0.58527l-1.17053,0l0,-0.58527l1.17053,0zm-2.92684,0l0,0.58527l-1.17054,0l0,-0.58527l1.17054,0zm-2.92684,0l0,0.58527l-1.17054,0l0,-0.58527l1.17054,0zm-2.92684,0l0,0.58527l-1.17054,0l0,-0.58527l1.17054,0z"/>
     </g>
     <circle r="12.390717" cy="134.448211" cx="262.597611" fill="#ECF0F1" id="Oval"/>
     <path fill="#828282" id="Shape" d="m275.28084,134.44722c0,3.50218 -1.4196,6.67311 -3.71473,8.96825c-2.29514,2.29513 -5.46607,3.71473 -8.96825,3.71473c-3.50218,0 -6.67311,-1.4196 -8.96825,-3.71473c-2.29514,-2.29514 -3.71473,-5.46607 -3.71473,-8.96825l0.58527,0c0,3.34077 1.35429,6.3657 3.5434,8.55456c2.18886,2.18886 5.21378,3.5434 8.55456,3.5434c3.34077,0 6.3657,-1.35429 8.55456,-3.5434c2.18886,-2.18886 3.5434,-5.21379 3.5434,-8.55456l0.58477,0z"/>
     <path fill="#FFBA1B" id="Shape" d="m260.05913,129.45319l-2.90723,7.01056l5.27661,10.05138l0,-10.09558c-0.44299,-0.09684 -0.77423,-0.49165 -0.77423,-0.96295c0,-0.54479 0.44149,-0.98604 0.98604,-0.98604c0.5448,0 0.98604,0.4415 0.98604,0.98604c0,0.50159 -0.37445,0.91552 -0.8589,0.97785l0,10.08093l5.27611,-10.05138l-2.90723,-7.01056l-2.53823,0l-2.53873,0l-0.00025,0l0,-0.00025z"/>
     <g fill="#828282" id="Group">
      <polygon points="228.037939786911,115.80825221538544 255.7583827972412,115.80825221538544 255.7583827972412,116.39352107048035 228.037939786911,116.39352107048035 " id="Shape"/>
      <path id="Shape" d="m228.03794,115.13309c0.53437,0 0.96742,0.43306 0.96742,0.96742c0,0.53437 -0.43305,0.96742 -0.96742,0.96742c-0.53437,0 -0.96742,-0.43305 -0.96742,-0.96742c0,-0.53411 0.43305,-0.96742 0.96742,-0.96742z"/>
      <path id="Shape" d="m255.75888,115.13309c0.53436,0 0.96742,0.43306 0.96742,0.96742c0,0.53437 -0.43306,0.96742 -0.96742,0.96742c-0.53437,0 -0.96742,-0.43305 -0.96742,-0.96742c0,-0.53411 0.43305,-0.96742 0.96742,-0.96742z"/>
     </g>
     <path fill="#FF5B62" id="Shape" d="m259.12722,115.22125l6.94054,0l0,13.40854c0,0.45317 -0.37073,0.8234 -0.82365,0.8234l-5.29325,0c-0.45316,0 -0.82364,-0.36999 -0.82364,-0.8234l0,-13.40854z"/>
     <rect height="1.254219" width="6.93905" y="125.258967" x="259.127962" fill="#FFFFFF" id="Rectangle-path"/>
     <g fill="#828282" id="Group">
      <circle r="1" cy="146.896537" cx="262.597612" id="Oval"/>
      <path id="Shape" d="m250.207138,133.480047c0.53437,0 0.96742,0.43306 0.96742,0.96742c0,0.53437 -0.43305,0.96742 -0.96742,0.96742c-0.53436,0 -0.96741,-0.43305 -0.96741,-0.96742c0,-0.53436 0.43305,-0.96742 0.96741,-0.96742z"/>
      <path id="Shape" d="m274.988578,133.480047c0.53436,0 0.96742,0.43306 0.96742,0.96742c0,0.53437 -0.43306,0.96742 -0.96742,0.96742c-0.53437,0 -0.96742,-0.43305 -0.96742,-0.96742c0,-0.53436 0.4333,-0.96742 0.96742,-0.96742z"/>
     </g>
    </g>
   </g>
  </g>
  <rect id="svg_1" height="386.999999" width="605.000014" y="167.937501" x="636.499986" stroke-width="1.5" fill="#D3F9D8"/>
  <rect stroke="null" id="svg_24" height="413" width="618" y="-17.5" x="-29.5" stroke-width="1.5" fill="#ccd9ff"/>
  <g stroke="null" id="svg_252">
   <circle stroke-width="0" stroke="null" transform="matrix(0.508850816212362,0,0,0.508850816212362,-2309.5434919057425,-1440.598484364583) " id="svg_192" fill="#F24976" r="245" cy="3174.203277" cx="5061.681355"/>
   <path stroke-width="0" stroke="null" id="svg_193" fill="#D9EAFC" d="m202.707107,138.577421c-0.04885,0.154691 -0.020354,0.322611 0.07531,0.453386c0.096173,0.130775 0.24781,0.207611 0.410134,0.207611l1.077746,0c1.122525,0 2.035403,0.912878 2.035403,2.035403l0,22.078019c0,1.122525 -0.912878,2.035403 -2.035403,2.035403l-7.639377,0c-0.281395,0 -0.508851,0.227456 -0.508851,0.508851l0,3.22815c0,2.525427 -2.054231,4.579657 -4.579657,4.579657l-11.037992,0c-2.525427,0 -4.579657,-2.054231 -4.579657,-4.579657l0,-3.22815c0,-0.281395 -0.227456,-0.508851 -0.508851,-0.508851l-5.744926,0l0,88.230661c22.863685,27.866706 57.567819,45.647989 96.426212,45.647989c38.85941,0 73.563545,-17.781792 96.42723,-45.650024l0,-125.590997l-156.507246,0l-3.310075,10.552548z"/>
   <path stroke-width="0" stroke="null" id="svg_194" fill="#C3DDF4" d="m175.924761,169.123736l0,-3.22815c0,-0.281395 -0.227456,-0.508851 -0.508851,-0.508851l-5.744926,0l0,88.230661c3.145716,3.834191 6.522959,7.469421 10.097127,10.90162l0,-90.880756c-2.175846,-0.353651 -3.84335,-2.24047 -3.84335,-4.514524z"/>
   <path stroke-width="0" stroke="null" id="svg_195" fill="#52BBEF" d="m347.690408,138.933617l-144.949208,0c0.014757,0.032058 0.019845,0.068186 0.041217,0.096682c0.096173,0.130775 0.24781,0.207611 0.410134,0.207611l1.077746,0c1.122525,0 2.035403,0.912878 2.035403,2.035403l0,22.078019c0,1.122525 -0.912878,2.035403 -2.035403,2.035403l-7.639377,0c-0.281395,0 -0.508851,0.227456 -0.508851,0.508851l0,3.22815c0,2.525427 -2.054231,4.579657 -4.579657,4.579657l-8.563959,0l0,4.617312c0,0.839604 0.686949,1.526552 1.526552,1.526552l163.184895,0c0.839604,0 1.526552,-0.686949 1.526552,-1.526552l0,-37.860536c0.000509,-0.839604 -0.68644,-1.526552 -1.526044,-1.526552z"/>
   <g stroke="null" transform="matrix(0.508850816212362,0,0,0.508850816212362,-2309.5434919057425,-1440.598484364583) " id="svg_196">
    <path stroke-width="0" stroke="null" id="svg_197" fill="#EEF6FF" d="m5225.029569,3323.520161c0,1.65 -1.35,3 -3,3l-320.694,0c-1.65,0 -3,-1.35 -3,-3l0,-14.404c0,-1.65 1.35,-3 3,-3l320.693,0c1.65,0 3,1.35 3,3l0,14.404l0.001,0z"/>
    <path stroke-width="0" stroke="null" id="svg_198" fill="#EEF6FF" d="m5163.029569,3358.520161c0,1.649 -1.35,3 -3,3l-196.694,0c-1.65,0 -3,-1.351 -3,-3l0,-14.404c0,-1.65 1.35,-3 3,-3l196.693,0c1.65,0 3,1.35 3,3l0,14.404l0.001,0z"/>
   </g>
   <g stroke="null" transform="matrix(0.508850816212362,0,0,0.508850816212362,-2309.5434919057425,-1440.598484364583) " id="svg_199">
    <path stroke-width="0" stroke="null" id="svg_200" fill="#FFFFFF" d="m5107.021569,3283.813161c0,1.65 -1.35,3 -3,3l-95.959,0c-1.65,0 -3,-1.35 -3,-3l0,-78.764c0,-1.65 1.35,-3 3,-3l95.959,0c1.65,0 3,1.35 3,3l0,78.764z"/>
    <path stroke-width="0" stroke="null" id="svg_201" fill="#FFFFFF" d="m5225.029569,3283.813161c0,1.65 -1.35,3 -3,3l-95.961,0c-1.65,0 -3,-1.35 -3,-3l0,-78.764c0,-1.65 1.35,-3 3,-3l95.961,0c1.65,0 3,1.35 3,3l0,78.764z"/>
   </g>
   <g stroke="null" transform="matrix(0.508850816212362,0,0,0.508850816212362,-2309.5434919057425,-1440.598484364583) " id="svg_202">
    <path stroke-width="0" stroke="null" id="svg_203" fill="#EEF6FF" d="m5024.905569,3283.813161l0,-78.764c0,-1.65 1.35,-3 3,-3l-19.843,0c-1.65,0 -3,1.35 -3,3l0,78.764c0,1.65 1.35,3 3,3l19.843,0c-1.651,0 -3,-1.349 -3,-3z"/>
    <path stroke-width="0" stroke="null" id="svg_204" fill="#EEF6FF" d="m5142.910569,3283.813161l0,-78.764c0,-1.65 1.35,-3 3,-3l-19.843,0c-1.65,0 -3,1.35 -3,3l0,78.764c0,1.65 1.35,3 3,3l19.843,0c-1.65,0 -3,-1.349 -3,-3z"/>
   </g>
   <path stroke-width="0" stroke="null" id="svg_205" fill="#293D7C" d="m357.854194,103.262666l-134.053186,0c-2.364121,9.345554 -8.144666,17.574181 -16.433337,23.008199c-0.591285,0.387744 -1.041109,0.939847 -1.30164,1.596774l-0.209138,0.666595l156.667534,0l0,-20.601334c0,-2.569188 -2.101045,-4.670233 -4.670233,-4.670233z"/>
   <path stroke-width="0" stroke="null" id="svg_206" fill="#FE3745" d="m323.15413,119.93618c-1.007525,0 -1.989607,-0.40759 -2.701489,-1.114383c-0.707811,-0.712391 -1.114892,-1.694473 -1.114892,-2.701998c0,-1.002945 0.40759,-1.984518 1.114892,-2.696909c0.711373,-0.7129 1.693456,-1.119472 2.701489,-1.119472c1.002945,0 1.989607,0.406572 2.6964,1.119472c0.712391,0.711882 1.119981,1.693964 1.119981,2.696909c0,1.007016 -0.40759,1.989098 -1.119981,2.701998c-0.706794,0.706794 -1.693456,1.114383 -2.6964,1.114383z"/>
   <path stroke-width="0" stroke="null" id="svg_207" fill="#FFAF10" d="m335.669825,119.93618c-1.002945,0 -1.989607,-0.40759 -2.697418,-1.119472c-0.712391,-0.707811 -1.118963,-1.689385 -1.118963,-2.696909c0,-1.002945 0.406572,-1.984518 1.118963,-2.696909c0.712391,-0.7129 1.694473,-1.119472 2.697418,-1.119472c1.006507,0 1.988589,0.406572 2.701489,1.119472c0.707811,0.711882 1.114892,1.693964 1.114892,2.696909c0,1.002436 -0.40759,1.989098 -1.114892,2.696909c-0.7129,0.711882 -1.694982,1.119472 -2.701489,1.119472z"/>
   <path stroke-width="0" stroke="null" id="svg_208" fill="#02AF8E" d="m348.189081,119.93618c-1.007525,0 -1.989607,-0.40759 -2.6964,-1.114383c-0.712391,-0.712391 -1.119981,-1.694473 -1.119981,-2.701998c0,-1.002945 0.40759,-1.984518 1.119981,-2.696909c0.706794,-0.7129 1.688367,-1.119472 2.6964,-1.119472c1.002945,0 1.989607,0.406572 2.697418,1.119472c0.711373,0.711882 1.118963,1.693964 1.118963,2.696909c0,1.007016 -0.40759,1.989098 -1.118963,2.701998c-0.7129,0.706794 -1.694473,1.114383 -2.697418,1.114383z"/>
   <g stroke="null" transform="matrix(0.508850816212362,0,0,0.508850816212362,-2309.5434919057425,-1440.598484364583) " id="svg_209">
    <path stroke-width="0" stroke="null" id="svg_210" fill="#445EA0" d="m4982.119569,3217.655161l-76.746,0c-4.143,0 -7.5,-3.357 -7.5,-7.5c0,-4.142 3.357,-7.5 7.5,-7.5l76.746,0c4.143,0 7.5,3.358 7.5,7.5c0,4.143 -3.358,7.5 -7.5,7.5z"/>
    <path stroke-width="0" stroke="null" id="svg_211" fill="#445EA0" d="m4982.119569,3240.614161l-76.746,0c-4.143,0 -7.5,-3.357 -7.5,-7.5s3.357,-7.5 7.5,-7.5l76.746,0c4.143,0 7.5,3.357 7.5,7.5c0,4.143 -3.358,7.5 -7.5,7.5z"/>
    <path stroke-width="0" stroke="null" id="svg_212" fill="#445EA0" d="m4982.119569,3263.571161l-76.746,0c-4.143,0 -7.5,-3.357 -7.5,-7.5s3.357,-7.5 7.5,-7.5l76.746,0c4.143,0 7.5,3.357 7.5,7.5c0,4.143 -3.358,7.5 -7.5,7.5z"/>
    <path stroke-width="0" stroke="null" id="svg_213" fill="#445EA0" d="m4943.900569,3286.528161l-38.527,0c-4.143,0 -7.5,-3.357 -7.5,-7.5s3.357,-7.5 7.5,-7.5l38.527,0c4.143,0 7.5,3.357 7.5,7.5s-3.358,7.5 -7.5,7.5z"/>
   </g>
   <path stroke-width="0" stroke="null" id="svg_214" fill="#FFD00D" d="m186.023924,54.179425c-21.769147,0 -39.480208,17.710553 -39.480208,39.479699c0,13.357334 6.675614,25.707652 17.857611,33.037139c0.499183,0.328209 0.886418,0.802967 1.106751,1.358632l3.506491,11.184032l34.018712,0l3.506491,-11.184032c0.220332,-0.555665 0.607059,-1.030423 1.107259,-1.358632c11.181488,-7.329487 17.857102,-19.679805 17.857102,-33.037139c-0.000509,-21.769656 -17.71157,-39.479699 -39.480208,-39.479699z"/>
   <g stroke="null" transform="matrix(0.508850816212362,0,0,0.508850816212362,-2309.5434919057425,-1440.598484364583) " id="svg_215">
    <path stroke-width="0" stroke="null" id="svg_216" fill="#FFAF10" d="m4896.820569,3053.153161l0,51.562l15,0l0,-51.562c14.859,-3.416 25.977,-16.739 25.977,-32.62c0,-18.46 -15.018,-33.479 -33.477,-33.479c-18.46,0 -33.479,15.019 -33.479,33.479c0,15.881 11.119,29.205 25.979,32.62zm7.5,-51.098c10.188,0 18.477,8.289 18.477,18.479c0,7.518 -4.519,13.988 -10.977,16.871l0,-14.4c0,-4.143 -3.357,-7.5 -7.5,-7.5s-7.5,3.357 -7.5,7.5l0,14.4c-6.459,-2.882 -10.979,-9.354 -10.979,-16.871c0,-10.19 8.289,-18.479 18.479,-18.479z"/>
    <path stroke-width="0" stroke="null" id="svg_217" fill="#FFAF10" d="m4870.892569,3104.715161l21.725,0l-8.772,-27.979c-0.433,-1.092 -1.193,-2.025 -2.175,-2.67c-21.975,-14.404 -35.094,-38.675 -35.094,-64.925c0,-31.339 18.688,-58.378 45.496,-70.61c-36.98,5.891 -65.339,37.997 -65.339,76.61c0,26.25 13.119,50.521 35.094,64.925c0.981,0.645 1.742,1.578 2.175,2.67l6.89,21.979z"/>
   </g>
   <path stroke-width="0" stroke="null" id="svg_218" fill="#1A2B63" d="m175.418455,165.386735c0,0.01781 -0.002544,0.034602 -0.002544,0.05292l0,3.68408c0,2.798679 2.289829,5.088508 5.088508,5.088508l11.037992,0c2.798679,0 5.088508,-2.289829 5.088508,-5.088508l0,-3.68408c0,-0.01781 -0.002544,-0.034602 -0.002544,-0.05292l-21.20992,0z"/>
   <path stroke-width="0" stroke="null" id="svg_219" fill="#445EA0" d="m206.81455,163.351332c0,1.39934 -1.144914,2.544254 -2.544254,2.544254l-36.493254,0c-1.39934,0 -2.544254,-1.144914 -2.544254,-2.544254l0,-22.078019c0,-1.39934 1.144914,-2.544254 2.544254,-2.544254l36.493254,0c1.39934,0 2.544254,1.144914 2.544254,2.544254l0,22.078019l0,0z"/>
   <g stroke="null" transform="matrix(0.508850816212362,0,0,0.508850816212362,-2309.5434919057425,-1440.598484364583) " id="svg_220">
    <path stroke-width="0" stroke="null" id="svg_221" fill="#293D7C" d="m4930.291569,3128.088161l-51.944,0c-4.143,0 -7.5,-3.357 -7.5,-7.5s3.357,-7.5 7.5,-7.5l51.944,0c4.143,0 7.5,3.357 7.5,7.5c0,4.142 -3.357,7.5 -7.5,7.5z"/>
    <path stroke-width="0" stroke="null" id="svg_222" fill="#293D7C" d="m4930.291569,3148.650161l-51.944,0c-4.143,0 -7.5,-3.357 -7.5,-7.5s3.357,-7.5 7.5,-7.5l51.944,0c4.143,0 7.5,3.357 7.5,7.5c0,4.143 -3.357,7.5 -7.5,7.5z"/>
   </g>
   <g stroke="null" transform="matrix(0.508850816212362,0,0,0.508850816212362,-2309.5434919057425,-1440.598484364583) " id="svg_223">
    <path stroke-width="0" stroke="null" id="svg_224" fill="#FFAF10" d="m4904.320569,2930.140161c-4.143,0 -7.5,-3.357 -7.5,-7.5l0,-7.937c0,-4.143 3.357,-7.5 7.5,-7.5s7.5,3.357 7.5,7.5l0,7.936c0,4.143 -3.358,7.501 -7.5,7.501z"/>
    <path stroke-width="0" stroke="null" id="svg_225" fill="#FFAF10" d="m4970.485569,2957.914161c-1.919,0 -3.839,-0.732 -5.304,-2.196c-2.929,-2.93 -2.929,-7.678 0,-10.607l5.612,-5.612c2.93,-2.928 7.678,-2.928 10.607,0c2.929,2.93 2.929,7.678 0,10.607l-5.612,5.612c-1.464,1.464 -3.384,2.196 -5.303,2.196z"/>
    <path stroke-width="0" stroke="null" id="svg_226" fill="#FFAF10" d="m5005.569569,3024.339161l-7.938,0c-4.143,0 -7.5,-3.357 -7.5,-7.5c0,-4.142 3.357,-7.5 7.5,-7.5l7.938,0c4.143,0 7.5,3.358 7.5,7.5s-3.358,7.5 -7.5,7.5z"/>
    <path stroke-width="0" stroke="null" id="svg_227" fill="#FFAF10" d="m4975.471569,3096.117161c-1.919,0 -3.839,-0.732 -5.304,-2.196l-5.612,-5.612c-2.929,-2.93 -2.929,-7.678 0,-10.607c2.93,-2.928 7.678,-2.928 10.607,0l5.612,5.612c2.929,2.93 2.929,7.678 0,10.607c-1.464,1.464 -3.384,2.196 -5.303,2.196z"/>
    <path stroke-width="0" stroke="null" id="svg_228" fill="#FFAF10" d="m4831.654569,3095.491161c-1.92,0 -3.839,-0.732 -5.304,-2.197c-2.929,-2.929 -2.929,-7.678 0.001,-10.606l5.613,-5.612c2.929,-2.929 7.678,-2.928 10.606,0.001c2.929,2.929 2.929,7.678 -0.001,10.607l-5.613,5.612c-1.463,1.463 -3.383,2.195 -5.302,2.195z"/>
    <path stroke-width="0" stroke="null" id="svg_229" fill="#FFAF10" d="m4810.120569,3023.453161l-7.939,0c-4.143,0 -7.5,-3.357 -7.5,-7.5s3.357,-7.5 7.5,-7.5l7.939,0c4.143,0 7.5,3.357 7.5,7.5s-3.358,7.5 -7.5,7.5z"/>
    <path stroke-width="0" stroke="null" id="svg_230" fill="#FFAF10" d="m4837.893569,2957.287161c-1.919,0 -3.839,-0.732 -5.304,-2.196l-5.613,-5.613c-2.929,-2.93 -2.929,-7.678 0,-10.607c2.93,-2.928 7.678,-2.928 10.607,0l5.613,5.613c2.929,2.93 2.929,7.678 0,10.607c-1.464,1.464 -3.384,2.196 -5.303,2.196z"/>
    <path stroke-width="0" stroke="null" id="svg_231" fill="#FFAF10" d="m4868.410569,2937.108161c-2.943,0 -5.735,-1.743 -6.932,-4.631l-3.038,-7.332c-1.586,-3.827 0.231,-8.214 4.058,-9.8c3.824,-1.584 8.215,0.231 9.8,4.058l3.038,7.332c1.586,3.827 -0.231,8.214 -4.058,9.8c-0.939,0.389 -1.911,0.573 -2.868,0.573z"/>
    <path stroke-width="0" stroke="null" id="svg_232" fill="#FFAF10" d="m4940.161569,2937.447161c-0.957,0 -1.929,-0.184 -2.867,-0.573c-3.827,-1.585 -5.645,-5.972 -4.059,-9.799l3.037,-7.332c1.586,-3.827 5.975,-5.646 9.799,-4.059c3.827,1.585 5.645,5.972 4.059,9.799l-3.037,7.332c-1.197,2.888 -3.989,4.632 -6.932,4.632z"/>
    <path stroke-width="0" stroke="null" id="svg_233" fill="#FFAF10" d="m4990.665569,2988.428161c-2.943,0 -5.736,-1.744 -6.933,-4.633c-1.584,-3.826 0.233,-8.214 4.061,-9.799l7.334,-3.037c3.824,-1.587 8.214,0.233 9.799,4.06c1.584,3.826 -0.233,8.214 -4.061,9.799l-7.334,3.037c-0.937,0.389 -1.91,0.573 -2.866,0.573z"/>
    <path stroke-width="0" stroke="null" id="svg_234" fill="#FFAF10" d="m4997.656569,3063.223161c-0.956,0 -1.928,-0.184 -2.866,-0.572l-7.334,-3.037c-3.827,-1.585 -5.645,-5.973 -4.061,-9.799c1.585,-3.827 5.972,-5.645 9.799,-4.061l7.334,3.037c3.827,1.585 5.645,5.973 4.061,9.799c-1.197,2.888 -3.99,4.633 -6.933,4.633z"/>
    <path stroke-width="0" stroke="null" id="svg_235" fill="#FFAF10" d="m4809.755569,3062.405161c-2.943,0 -5.735,-1.743 -6.932,-4.632c-1.586,-3.826 0.231,-8.214 4.059,-9.799l7.334,-3.038c3.826,-1.585 8.214,0.231 9.799,4.059c1.586,3.826 -0.231,8.214 -4.059,9.799l-7.334,3.038c-0.938,0.389 -1.911,0.573 -2.867,0.573z"/>
    <path stroke-width="0" stroke="null" id="svg_236" fill="#FFAF10" d="m4817.422569,2987.609161c-0.956,0 -1.928,-0.184 -2.865,-0.572l-7.335,-3.036c-3.827,-1.584 -5.645,-5.971 -4.062,-9.798c1.584,-3.828 5.975,-5.646 9.798,-4.062l7.335,3.036c3.827,1.584 5.645,5.971 4.061,9.798c-1.194,2.89 -3.988,4.634 -6.932,4.634z"/>
   </g>
   <g stroke="null" transform="matrix(0.508850816212362,0,0,0.508850816212362,-2309.5434919057425,-1440.598484364583) " id="svg_237"/>
   <g stroke="null" transform="matrix(0.508850816212362,0,0,0.508850816212362,-2309.5434919057425,-1440.598484364583) " id="svg_238"/>
   <g stroke="null" transform="matrix(0.508850816212362,0,0,0.508850816212362,-2309.5434919057425,-1440.598484364583) " id="svg_239"/>
   <g stroke="null" transform="matrix(0.508850816212362,0,0,0.508850816212362,-2309.5434919057425,-1440.598484364583) " id="svg_240"/>
   <g stroke="null" transform="matrix(0.508850816212362,0,0,0.508850816212362,-2309.5434919057425,-1440.598484364583) " id="svg_241"/>
   <g stroke="null" transform="matrix(0.508850816212362,0,0,0.508850816212362,-2309.5434919057425,-1440.598484364583) " id="svg_242"/>
   <g stroke="null" transform="matrix(0.508850816212362,0,0,0.508850816212362,-2309.5434919057425,-1440.598484364583) " id="svg_243"/>
   <g stroke="null" transform="matrix(0.508850816212362,0,0,0.508850816212362,-2309.5434919057425,-1440.598484364583) " id="svg_244"/>
   <g stroke="null" transform="matrix(0.508850816212362,0,0,0.508850816212362,-2309.5434919057425,-1440.598484364583) " id="svg_245"/>
   <g stroke="null" transform="matrix(0.508850816212362,0,0,0.508850816212362,-2309.5434919057425,-1440.598484364583) " id="svg_246"/>
   <g stroke="null" transform="matrix(0.508850816212362,0,0,0.508850816212362,-2309.5434919057425,-1440.598484364583) " id="svg_247"/>
   <g stroke="null" transform="matrix(0.508850816212362,0,0,0.508850816212362,-2309.5434919057425,-1440.598484364583) " id="svg_248"/>
   <g stroke="null" transform="matrix(0.508850816212362,0,0,0.508850816212362,-2309.5434919057425,-1440.598484364583) " id="svg_249"/>
   <g stroke="null" transform="matrix(0.508850816212362,0,0,0.508850816212362,-2309.5434919057425,-1440.598484364583) " id="svg_250"/>
   <g stroke="null" transform="matrix(0.508850816212362,0,0,0.508850816212362,-2309.5434919057425,-1440.598484364583) " id="svg_251"/>
  </g>
 </g>
</svg>