<svg width="532" height="343" xmlns="http://www.w3.org/2000/svg">
 <!-- Generator: Sketch 45.1 (43504) - http://www.bohemiancoding.com/sketch -->
 <title>Artboard Copy 2</title>
 <desc>Created with Sketch.</desc>

 <g>
  <title>background</title>
  <rect fill="none" id="canvas_background" height="402" width="582" y="-1" x="-1"/>
 </g>
 <g>
  <title>Layer 1</title>
  <g fill-rule="evenodd" fill="none" id="Page-1">
   <g id="Artboard-Copy-2">
    <rect height="343" width="532" y="0" x="0" fill="#D3F9D8" id="Rectangle"/>
    <g fill-rule="nonzero" id="startup">
     <circle r="124.999512" cy="171.999512" cx="265.999512" fill="#FF5B62" id="Oval"/>
     <ellipse ry="7.016113" rx="89.005371" cy="252.880859" cx="265.999512" fill="#ED4C54" id="Oval"/>
     <path fill="#666666" id="Shape" d="m173.21729,79.82324l185.56445,0c6.09668,0 11.08496,4.98877 11.08496,11.08496l0,114.30909l-207.73438,0l0,-114.30958c0,-6.09667 4.9878,-11.08447 11.08497,-11.08447z"/>
     <path fill="#21D0C3" id="Shape" d="m169.65967,197.69141l192.6792,0l0,-106.78272c0,-1.94189 -1.61621,-3.5581 -3.55713,-3.5581l-185.56348,0c-1.94189,0 -3.55713,1.61621 -3.55713,3.5581l0,106.7832l-0.00146,0l0,-0.00048z"/>
     <path fill="#FFFFFF" id="Shape" d="m369.86572,205.21826l0,12.12207c0,6.09815 -5.49804,11.08496 -12.21924,11.08496l-183.29492,0c-6.72119,0 -12.21924,-4.98681 -12.21924,-11.08496l0,-12.12207l207.7334,0z"/>
     <path opacity="0" fill="#ECF0F1" id="Shape" d="m182.95996,133.05908c17.62158,0 32.50635,11.70996 37.30225,27.77149c7.85547,3.54541 13.60888,10.92529 14.87597,19.75195c1.38428,-0.33301 2.83057,-0.51025 4.31739,-0.51025c4.27636,0 8.21191,1.45752 11.33642,3.90332c0.98194,-6.2002 6.35205,-10.94141 12.82861,-10.94141c0.81299,0 1.6084,0.07568 2.37891,0.21826c0.771,-0.14306 1.56641,-0.21826 2.37891,-0.21826c6.47656,0 11.84668,4.74121 12.82861,10.94141c3.12402,-2.4458 7.06055,-3.90332 11.33594,-3.90332c1.48682,0 2.93164,0.17773 4.31738,0.51025c1.26709,-8.82715 7.02051,-16.20703 14.87598,-19.75195c4.79736,-16.06153 19.68115,-27.77149 37.30224,-27.77149c4.67139,0 9.14991,0.82373 13.3003,2.33203l0,62.29981l-88.18457,0l0.00097,-0.03028l-0.06054,0.03028l-16.18848,0l-0.06055,-0.03028l0.00098,0.03028l-88.18555,0l0,-62.29981c4.14991,-1.5083 8.62842,-2.33203 13.3003,-2.33203l-0.00147,0l0,0z"/>
     <g id="Group-3">
      <g fill="#FFFFFF" id="Group">
       <path id="Shape" d="m210.03174,98.858888l103.94385,0l15.47265,0c1.875,0 3.40869,1.53516 3.40869,3.40869l0,20.28662l0,74.09375l-141.70703,0l-0.00049,-0.00098l0,-74.09179l0,-20.28711c0,-1.875 1.53418,-3.40869 3.4087,-3.40869c0.00048,-0.00049 15.47363,-0.00049 15.47363,-0.00049z"/>
      </g>
      <g id="Group-2">
       <path fill="#828282" id="Shape" d="m195.55469,99.593258l134.89013,0c1.875,0 3.4087,1.53418 3.4087,3.4087l0,6.81738l-141.70801,0l0,-6.81738c0,-1.875 1.53369,-3.4087 3.40918,-3.4087z"/>
       <path fill="#FFFFFF" id="Shape" d="m255.2334,103.124028l68.45215,0c0.50439,0 0.91552,0.41113 0.91552,0.91552l0,1.69873c0,0.5044 -0.41113,0.91553 -0.91552,0.91553l-68.45215,0c-0.5044,0 -0.91553,-0.41113 -0.91553,-0.91553l0,-1.69873c0,-0.50342 0.41162,-0.91552 0.91553,-0.91552z"/>
       <path fill="#21D0C3" id="Shape" d="m198.9458,102.516598c1.0835,0 1.9624,0.87745 1.9624,1.96241c0,1.08447 -0.87939,1.9624 -1.9624,1.9624c-1.08496,0 -1.96435,-0.87793 -1.96435,-1.9624c0,-1.08496 0.87939,-1.96241 1.96435,-1.96241z"/>
       <path fill="#FAD24D" id="Shape" d="m206.69336,102.516598c1.08496,0 1.9624,0.87745 1.9624,1.96241c0,1.08447 -0.87744,1.9624 -1.9624,1.9624c-1.08398,0 -1.9624,-0.87793 -1.9624,-1.9624c-0.00049,-1.08496 0.8789,-1.96241 1.9624,-1.96241z"/>
       <path fill="#FF5B62" id="Shape" d="m214.44287,102.516598c1.0835,0 1.96192,0.87745 1.96192,1.96241c0,1.08447 -0.87842,1.9624 -1.96192,1.9624c-1.08545,0 -1.96435,-0.87793 -1.96435,-1.9624c0,-1.08496 0.8789,-1.96241 1.96435,-1.96241z"/>
       <polygon points="200,114.69091796875 326.36962890625,114.69091796875 326.36962890625,156.3779296875 200,156.3779296875 " fill="#ECF0F1" id="Shape"/>
       <path fill="#FF5B62" id="Shape" d="m218.56396,161.342778c4.63965,0 8.4004,3.76074 8.4004,8.40039c0,4.63867 -3.76075,8.40039 -8.4004,8.40039c-4.63867,0 -8.39941,-3.76123 -8.39941,-8.40039c-0.00049,-4.63965 3.76025,-8.40039 8.39941,-8.40039z"/>
       <path fill="#21D0C3" id="Shape" d="m263,161.342778c4.63867,0 8.39941,3.76074 8.39941,8.40039c0,4.63867 -3.76074,8.40039 -8.39941,8.40039c-4.63867,0 -8.39941,-3.76123 -8.39941,-8.40039c-0.00049,-4.63965 3.76025,-8.40039 8.39941,-8.40039z"/>
       <path fill="#FAD24D" id="Shape" d="m307.43555,161.342778c4.63867,0 8.39941,3.76074 8.39941,8.40039c0,4.63867 -3.76074,8.40039 -8.39941,8.40039c-4.63965,0 -8.40039,-3.76123 -8.40039,-8.40039c0,-4.63965 3.76074,-8.40039 8.40039,-8.40039z"/>
       <g fill="#DCE3DB" id="Group">
        <path id="Shape" d="m192.15186,99.155278l24.10644,0l0,1.30712l-24.10644,0l0,-1.30712zm0,8.21777l16.1914,0l0,1.30713l-16.1914,0l0,-1.30713l0,0zm0,-4.10889l24.10644,0l0,1.30664l-24.10644,0l0,-1.30664z"/>
        <path id="Shape" d="m236.5874,99.155278l24.10596,0l0,1.30712l-24.10596,0l0,-1.30712l0,0zm0,8.21777l16.19239,0l0,1.30713l-16.19239,0l0,-1.30713l0,0zm0,-4.10889l24.10596,0l0,1.30664l-24.10596,0l0,-1.30664l0,0z"/>
        <path id="Shape" d="m281.02441,99.155278l24.10499,0l0,1.30712l-24.10499,0l0,-1.30712zm0,8.21777l16.19092,0l0,1.30713l-16.19092,0l0,-1.30713zm0,-4.10889l24.10499,0l0,1.30664l-24.10499,0l0,-1.30664z"/>
       </g>
      </g>
     </g>
     <circle r="3.816406" cy="216.336426" cx="265.999512" fill="#B6B6B8" id="Oval"/>
     <polygon points="289.95703125,245.86328125 307.58154296875,251.5107421875 224.416015625,251.5107421875 238.63671875,245.86328125 238.63671875,228.42578125 289.95751953125,228.42578125 289.95751953125,245.86328125 " fill="#C2C2C4" id="Shape"/>
     <polygon points="289.95703125,245.86328125 238.63623046875,228.42578125 289.95703125,228.42578125 " fill="#B0B0B0" id="Shape"/>
     <polygon points="238.63623046875,245.86328125 289.95703125,245.86328125 307.58154296875,251.5107421875 307.58154296875,253.9423828125 266,253.9423828125 224.416015625,253.9423828125 224.416015625,251.5107421875 " fill="#ECF0F1" id="Shape"/>
    </g>
    <g fill-rule="nonzero" id="Group-5">
     <g fill="#C9CACC" id="Group">
      <path id="Shape" d="m228.62966,115.01142l0,0.58527l-1.17053,0l0,-0.58527l1.17053,0zm-1.46329,1.0655l0.58527,0l0,1.17054l-0.58527,0l0,-1.17054zm0,2.92685l0.58527,0l0,1.17053l-0.58527,0l0,-1.17053zm0,2.92709l0.58527,0l0,1.17053l-0.58527,0l0,-1.17053zm0,2.92684l0.58527,0l0,1.17053l-0.58527,0l0,-1.17053zm0,2.92684l0.58527,0l0,1.17054l-0.58527,0l0,-1.17054zm0,2.92684l0.58527,0l0,1.17054l-0.58527,0l0,-1.17054zm0.9118,2.60056l0,-0.58527l1.17053,0l0,0.58527l-1.17053,0zm2.92709,0l0,-0.58527l1.17053,0l0,0.58527l-1.17053,0zm2.92684,0l0,-0.58527l1.17054,0l0,0.58527l-1.17054,0zm2.92684,0l0,-0.58527l1.17054,0l0,0.58527l-1.17054,0zm2.92684,0l0,-0.58527l1.17054,0l0,0.58527l-1.17054,0zm2.92684,0l0,-0.58527l1.17054,0l0,0.58527l-1.17054,0zm2.92684,0l0,-0.58527l1.17054,0l0,0.58527l-1.17054,0zm2.92709,0l0,-0.58527l1.17054,0l0,0.58527l-1.17054,0zm2.92684,0l0,-0.58527l1.17054,0l0,0.58527l-1.17054,0zm2.92684,0l0,-0.58527l1.17054,0l0,0.58527l-1.17054,0zm2.92685,0l0,-0.58527l1.17053,0l0,0.58527l-1.17053,0zm2.92684,0l0,-0.58527l1.17054,0l0,0.58527l-1.17054,0zm2.92684,0l0,-0.58527l1.17054,0l0,0.58527l-1.17054,0zm2.92709,0l0,-0.58527l1.17054,0l0,0.58527l-1.17054,0zm2.92659,0l0,-0.58527l1.17054,0l0,0.58527l-1.17054,0zm2.92684,0l0,-0.58527l1.17054,0l0,0.58527l-1.17054,0zm2.92684,0l0,-0.58527l1.17054,0l0,0.58527l-1.17054,0zm2.92685,0l0,-0.58527l1.17053,0l0,0.58527l-1.17053,0zm2.92684,0l0,-0.58527l1.17053,0l0,0.58527l-1.17053,0zm2.92709,0l0,-0.58527l1.17053,0l0,0.58527l-1.17053,0zm2.92684,0l0,-0.58527l1.17054,0l0,0.58527l-1.17054,0zm2.92684,0l0,-0.58527l1.17054,0l0,0.58527l-1.17054,0zm2.92684,0l0,-0.58527l1.17054,0l0,0.58527l-1.17054,0zm2.92684,0l0,-0.58527l1.17054,0l0,0.58527l-1.17054,0zm1.95495,-1.55716l-0.58527,0l0,-1.17054l0.58527,0l0,1.17054zm0,-2.92684l-0.58527,0l0,-1.17054l0.58527,0l0,1.17054zm0,-2.92709l-0.58527,0l0,-1.17054l0.58527,0l0,1.17054zm0,-2.92659l-0.58527,0l0,-1.17054l0.58527,0l0,1.17054zm0,-2.92684l-0.58527,0l0,-1.17054l0.58527,0l0,1.17054zm0,-2.92684l-0.58527,0l0,-1.17054l0.58527,0l0,1.17054zm-1.40419,-2.10866l0,0.58527l-1.17054,0l0,-0.58527l1.17054,0zm-2.9266,0l0,0.58527l-1.17054,0l0,-0.58527l1.17054,0zm-2.92709,0l0,0.58527l-1.17054,0l0,-0.58527l1.17054,0zm-2.92684,0l0,0.58527l-1.17054,0l0,-0.58527l1.17054,0zm-2.92684,0l0,0.58527l-1.17054,0l0,-0.58527l1.17054,0zm-2.92684,0l0,0.58527l-1.17054,0l0,-0.58527l1.17054,0zm-2.92684,0l0,0.58527l-1.17054,0l0,-0.58527l1.17054,0zm-2.92684,0l0,0.58527l-1.17054,0l0,-0.58527l1.17054,0zm-2.92709,0l0,0.58527l-1.17054,0l0,-0.58527l1.17054,0zm-2.92684,0l0,0.58527l-1.17054,0l0,-0.58527l1.17054,0zm-2.92685,0l0,0.58527l-1.17053,0l0,-0.58527l1.17053,0zm-2.92684,0l0,0.58527l-1.17054,0l0,-0.58527l1.17054,0zm-2.92684,0l0,0.58527l-1.17054,0l0,-0.58527l1.17054,0zm-2.92684,0l0,0.58527l-1.17054,0l0,-0.58527l1.17054,0zm-2.92709,0l0,0.58527l-1.17054,0l0,-0.58527l1.17054,0zm-2.92659,0l0,0.58527l-1.17054,0l0,-0.58527l1.17054,0zm-2.92684,0l0,0.58527l-1.17054,0l0,-0.58527l1.17054,0zm-2.92685,0l0,0.58527l-1.17053,0l0,-0.58527l1.17053,0zm-2.92684,0l0,0.58527l-1.17053,0l0,-0.58527l1.17053,0zm-2.92684,0l0,0.58527l-1.17054,0l0,-0.58527l1.17054,0zm-2.92709,0l0,0.58527l-1.17054,0l0,-0.58527l1.17054,0zm-2.92684,0l0,0.58527l-1.17054,0l0,-0.58527l1.17054,0zm-2.92684,0l0,0.58527l-1.17054,0l0,-0.58527l1.17054,0z"/>
      <path id="Shape" d="m230.17863,139.69626l0,0.58527l-1.17054,0l0,-0.58527l1.17054,0zm49.64878,1.2279l0.58527,0l0,1.17054l-0.58527,0l0,-1.17054zm0,2.92684l0.58527,0l0,1.17054l-0.58527,0l0,-1.17054zm0,2.92684l0.58527,0l0,1.17054l-0.58527,0l0,-1.17054zm0,2.92685l0.58527,0l0,1.17053l-0.58527,0l0,-1.17053zm0.93167,2.58044l0,-0.58527l1.17053,0l0,0.58527l-1.17053,0zm2.92708,0l0,-0.58527l1.17054,0l0,0.58527l-1.17054,0zm2.92685,0l0,-0.58527l1.17053,0l0,0.58527l-1.17053,0zm2.92684,0l0,-0.58527l1.17054,0l0,0.58527l-1.17054,0zm2.92684,0l0,-0.58527l1.17054,0l0,0.58527l-1.17054,0zm2.92684,0l0,-0.1177l-0.17481,-0.17481l0,-1.05284l0.58527,0l0,1.05284l0,0.29301l-0.29301,0l-0.1177,0l0,-0.0005l0.00025,0zm0.41071,-3.10165l-0.58527,0l0,-1.17054l0.58527,0l0,1.17054zm0,-2.92684l-0.58527,0l0,-1.17054l0.58527,0l0,1.17054zm0,-2.92684l-0.58527,0l0,-1.17054l0.58527,0l0,1.17054zm0,-2.92684l-0.58527,0l0,-0.12093l-0.4641,0l0,-0.58527l0.7571,0l0.29301,0l0,0.29301l0,0.41393l-0.00074,-0.00074zm-2.80592,-0.7067l0,0.58527l-1.17054,0l0,-0.58527l1.17054,0zm-2.92684,0l0,0.58527l-1.17054,0l0,-0.58527l1.17054,0zm-2.92684,0l0,0.58527l-1.17054,0l0,-0.58527l1.17054,0zm-2.92684,0l0,0.58527l-1.17054,0l0,-0.58527l1.17054,0zm-2.92709,0l0,0.58527l-1.17054,0l0,-0.58527l1.17054,0zm-52.57563,1.2279l0.58527,0l0,1.17054l-0.58527,0l0,-1.17054zm0,2.92684l0.58527,0l0,1.17054l-0.58527,0l0,-1.17054zm0,2.92684l0.58527,0l0,1.17054l-0.58527,0l0,-1.17054zm0,2.92685l0.58527,0l0,1.17053l-0.58527,0l0,-1.17053zm0.93191,2.58044l0,-0.58527l1.17054,0l0,0.58527l-1.17054,0zm2.92685,0l0,-0.58527l1.17053,0l0,0.58527l-1.17053,0zm2.92684,0l0,-0.58527l1.17054,0l0,0.58527l-1.17054,0zm2.92684,0l0,-0.58527l1.17054,0l0,0.58527l-1.17054,0zm2.92684,0l0,-0.58527l1.17054,0l0,0.58527l-1.17054,0zm2.92709,0l0,-0.1177l-0.17481,-0.17481l0,-1.05284l0.58527,0l0,1.05284l0,0.29301l-0.29301,0l-0.1177,0l0.00025,-0.0005l0,0zm0.41021,-3.10165l-0.58527,0l0,-1.17054l0.58527,0l0,1.17054zm0,-2.92684l-0.58527,0l0,-1.17054l0.58527,0l0,1.17054zm0,-2.92684l-0.58527,0l0,-1.17054l0.58527,0l0,1.17054zm0,-2.92684l-0.58527,0l0,-0.12093l-0.46409,0l0,-0.58527l0.7571,0l0.293,0l0,0.29301l0,0.41393l-0.00074,-0.00074zm-2.80567,-0.7067l0,0.58527l-1.17053,0l0,-0.58527l1.17053,0zm-2.92684,0l0,0.58527l-1.17054,0l0,-0.58527l1.17054,0zm-2.92684,0l0,0.58527l-1.17054,0l0,-0.58527l1.17054,0zm-2.92684,0l0,0.58527l-1.17054,0l0,-0.58527l1.17054,0z"/>
     </g>
     <circle r="12.390717" cy="134.448211" cx="262.597611" fill="#ECF0F1" id="Oval"/>
     <path fill="#828282" id="Shape" d="m275.28084,134.44722c0,3.50218 -1.4196,6.67311 -3.71473,8.96825c-2.29514,2.29513 -5.46607,3.71473 -8.96825,3.71473c-3.50218,0 -6.67311,-1.4196 -8.96825,-3.71473c-2.29514,-2.29514 -3.71473,-5.46607 -3.71473,-8.96825l0.58527,0c0,3.34077 1.35429,6.3657 3.5434,8.55456c2.18886,2.18886 5.21378,3.5434 8.55456,3.5434c3.34077,0 6.3657,-1.35429 8.55456,-3.5434c2.18886,-2.18886 3.5434,-5.21379 3.5434,-8.55456l0.58477,0z"/>
     <path fill="#FFBA1B" id="Shape" d="m260.05913,129.45319l-2.90723,7.01056l5.27661,10.05138l0,-10.09558c-0.44299,-0.09684 -0.77423,-0.49165 -0.77423,-0.96295c0,-0.54479 0.44149,-0.98604 0.98604,-0.98604c0.5448,0 0.98604,0.4415 0.98604,0.98604c0,0.50159 -0.37445,0.91552 -0.8589,0.97785l0,10.08093l5.27611,-10.05138l-2.90723,-7.01056l-2.53823,0l-2.53873,0l-0.00025,0l0,-0.00025z"/>
     <g fill="#828282" id="Group">
      <polygon points="228.037939786911,115.80825221538544 255.7583827972412,115.80825221538544 255.7583827972412,116.39352107048035 228.037939786911,116.39352107048035 " id="Shape"/>
      <path id="Shape" d="m228.03794,115.13309c0.53437,0 0.96742,0.43306 0.96742,0.96742c0,0.53437 -0.43305,0.96742 -0.96742,0.96742c-0.53437,0 -0.96742,-0.43305 -0.96742,-0.96742c0,-0.53411 0.43305,-0.96742 0.96742,-0.96742z"/>
      <path id="Shape" d="m255.75888,115.13309c0.53436,0 0.96742,0.43306 0.96742,0.96742c0,0.53437 -0.43306,0.96742 -0.96742,0.96742c-0.53437,0 -0.96742,-0.43305 -0.96742,-0.96742c0,-0.53411 0.43305,-0.96742 0.96742,-0.96742z"/>
     </g>
     <path fill="#FF5B62" id="Shape" d="m259.12722,115.22125l6.94054,0l0,13.40854c0,0.45317 -0.37073,0.8234 -0.82365,0.8234l-5.29325,0c-0.45316,0 -0.82364,-0.36999 -0.82364,-0.8234l0,-13.40854z"/>
     <rect height="1.254219" width="6.93905" y="125.258967" x="259.127962" fill="#FFFFFF" id="Rectangle-path"/>
     <g fill="#828282" id="Group">
      <circle r="1" cy="146.896537" cx="262.597612" id="Oval"/>
      <path id="Shape" d="m250.207138,133.480047c0.53437,0 0.96742,0.43306 0.96742,0.96742c0,0.53437 -0.43305,0.96742 -0.96742,0.96742c-0.53436,0 -0.96741,-0.43305 -0.96741,-0.96742c0,-0.53436 0.43305,-0.96742 0.96741,-0.96742z"/>
      <path id="Shape" d="m274.988578,133.480047c0.53436,0 0.96742,0.43306 0.96742,0.96742c0,0.53437 -0.43306,0.96742 -0.96742,0.96742c-0.53437,0 -0.96742,-0.43305 -0.96742,-0.96742c0,-0.53436 0.4333,-0.96742 0.96742,-0.96742z"/>
     </g>
    </g>
   </g>
  </g>
  <rect id="svg_1" height="386.999999" width="605.000014" y="167.937501" x="636.499986" stroke-width="1.5" fill="#D3F9D8"/>
  <rect id="svg_24" height="413" width="618" y="-19.5" x="-23.5" stroke-width="1.5" fill="#D3F9D8"/>
  <g stroke="null" id="svg_23">
   <path stroke="null" id="svg_6" fill="#ff7591" d="m392.258275,174.500018c0,69.459385 -56.306334,125.765719 -125.765719,125.765719s-125.765719,-56.306334 -125.765719,-125.765719s56.306334,-125.765719 125.765719,-125.765719s125.765719,56.306334 125.765719,125.765719zm0,0"/>
   <path stroke="null" id="svg_7" fill="#3b3b3b" d="m254.943819,260.278856l23.099395,0l0,30.029022l-23.099395,0l0,-30.029022zm0,0"/>
   <path stroke="null" id="svg_8" fill="#4a4a4a" d="m388.245577,91.325307l0,114.800368c-2.412221,9.341853 -5.881832,18.259596 -10.266826,26.626578c-4.085617,7.81238 -8.973394,15.143087 -14.548185,21.878892c-2.976418,3.598182 -6.148578,7.027494 -9.501128,10.264905l-174.869927,0c-3.352551,-3.237411 -6.524711,-6.666723 -9.503049,-10.264905c-5.574787,-6.735806 -10.460647,-14.066512 -14.548185,-21.878892c-4.383068,-8.366982 -7.852679,-17.284725 -10.264905,-26.626578l0,-114.800368c0,-4.918481 3.987751,-8.906227 8.906232,-8.906227l225.687826,0c4.920397,0 8.908148,3.987746 8.908148,8.906227zm0,0"/>
   <path stroke="null" id="svg_9" fill="#ffd861" d="m377.978752,92.685901l0,140.066352c-4.085617,7.81238 -8.973394,15.143087 -14.548185,21.878892l-193.874105,0c-5.574787,-6.735806 -10.460642,-14.066512 -14.548185,-21.878892l0,-140.066352l222.970476,0zm0,0"/>
   <path stroke="null" id="svg_10" fill="#4a4a4a" d="m324.40704,286.164689c-17.334623,9.007935 -37.025816,14.101049 -57.912564,14.101049c-20.888669,0 -40.579867,-5.093114 -57.914485,-14.101049c13.978231,-2.650188 34.742166,-4.327422 57.914485,-4.327422c23.176156,0 43.936249,1.677233 57.912564,4.327422zm0,0"/>
   <path stroke="null" id="svg_11" fill="#3b3b3b" d="m155.856492,129.811509l161.505782,-81.069531l13.199102,26.296502l-161.505782,81.069531l-13.199102,-26.296502zm0,0"/>
   <path stroke="null" id="svg_12" fill="#3b3b3b" d="m377.126704,215.432982l-124.748633,39.198163l-52.36464,0l-25.743825,-81.944615l172.40205,-54.170449l30.455048,96.916901zm0,0"/>
   <g stroke="null" transform="matrix(0.4912723405743402,0,0,0.4912723405743402,-67.50551343264732,-1354.0893587108378) " id="svg_13" fill="#efefef">
    <path stroke="null" id="svg_14" d="m683.945389,2905.428262l53.94531,-27.08203l58.90625,37.44531l-53.94921,27.08203l-58.90235,-37.44531zm0,0"/>
    <path stroke="null" id="svg_15" d="m576.050859,2959.588422l53.94531,-27.08203l58.90625,37.44921l-53.94922,27.08204l-58.90234,-37.44922zm0,0"/>
    <path stroke="null" id="svg_16" d="m468.156329,3013.752482l53.94922,-27.08203l58.90234,37.44922l-53.94922,27.08203l-58.90234,-37.44922zm0,0"/>
    <path stroke="null" id="svg_17" d="m481.539139,3074.049352l350.9336,-110.28125l17.95703,57.13672l-350.9336,110.28516l-17.95703,-57.14063zm0,0"/>
   </g>
   <path stroke="null" id="svg_18" fill="#3b3b3b" d="m298.120133,146.399624l28.290375,-8.890875l7.977423,-33.348952l-28.29038,8.888959l-7.977418,33.350868zm0,0"/>
   <path stroke="null" id="svg_19" fill="#3b3b3b" d="m241.537458,164.177542l28.290375,-8.888959l7.979339,-33.350868l-28.292295,8.89088l-7.977418,33.348947zm0,0"/>
   <path stroke="null" id="svg_20" fill="#3b3b3b" d="m184.956699,181.955459l28.29038,-8.888959l7.977418,-33.348947l-28.29038,8.888959l-7.977418,33.348947zm0,0"/>
   <path stroke="null" id="svg_21" fill="#efefef" d="m200.882751,201.721497l77.360041,-24.312223l2.778759,8.840981l-77.360041,24.312223l-2.778759,-8.840981zm0,0"/>
   <path stroke="null" id="svg_22" fill="#efefef" d="m207.967817,224.26629l114.493323,-35.981862l2.778759,8.842902l-114.493323,35.979946l-2.778759,-8.840986zm0,0"/>
  </g>
 </g>
</svg>